<?xml version="1.0" standalone="no"?>
<!DOCTYPE svg PUBLIC "-//W3C//DTD SVG 1.1//EN" "http://www.w3.org/Graphics/SVG/1.1/DTD/svg11.dtd" >
<svg xmlns="http://www.w3.org/2000/svg" xmlns:xlink="http://www.w3.org/1999/xlink" version="1.1">
<metadata></metadata>
<defs>
<font id="db_helvethaica_x43_liext" horiz-adv-x="0" >
<font-face units-per-em="2048" ascent="1638" descent="-410" />
<missing-glyph horiz-adv-x="389" />
<glyph unicode="&#x2b;&#x2d;" horiz-adv-x="796" d="M74 10v90h649v-90h-649zM74 366v93h278v201h92v-201h279v-93h-279v-198h-92v198h-278z" />
<glyph unicode="&#x2e;&#x2e;&#x2e;" horiz-adv-x="1325" d="M152 0v133h141v-133h-141zM592 0v133h143v-133h-143zM1032 0v133h142v-133h-142z" />
<glyph unicode="&#x3c;&#x3d;" horiz-adv-x="782" d="M66 10v90h657v-90h-657zM66 467v113l657 278v-94l-569 -242l569 -240v-92z" />
<glyph unicode="&#x3e;&#x3d;" horiz-adv-x="798" d="M66 10v90h657v-90h-657zM66 190v92l569 240l-569 242v94l657 -278v-113z" />
<glyph unicode="&#xe4f;&#x22;" horiz-adv-x="983" d="M76 402q0 58 15 111t42 99.5t65 84.5t84.5 65.5t100 42t111.5 14.5t111 -14.5t99.5 -42t85 -65.5t65.5 -84.5t42 -99.5t15 -111t-15 -112t-42 -100t-65.5 -84t-85 -65t-99.5 -42t-111 -15t-111.5 15t-100 42t-84.5 65t-65 84t-42 100t-15 112zM174 402q0 -44 11.5 -85 t32 -76.5t50 -65t65 -50t76.5 -32t85 -11.5t84.5 11.5t76 32t64.5 50t50 65t32.5 76.5t11.5 85t-11.5 84.5t-32.5 76t-50 64.5t-64.5 50t-76 32.5t-84.5 11.5t-85 -11.5t-76.5 -32.5t-65 -50t-50 -64.5t-32 -76t-11.5 -84.5zM268 402q0 44 18 84t49 70.5t72 48t87 17.5 t86 -17.5t70 -48t47.5 -70.5t17.5 -84q0 -46 -17.5 -87t-47.5 -71.5t-70 -47.5q-40 -18 -86 -18t-87 17.5t-72 48t-49 71.5t-18 87zM330 1149h112l-14 -223h-86zM360 402q0 -30 10 -54t28 -42t42 -28t54 -10q28 0 51 10t40.5 28t27 42t9.5 54q0 28 -9.5 51t-27 40.5 t-41.5 26.5q-22 10 -50 10q-30 0 -54 -9.5t-42 -27t-28 -40.5t-10 -51zM542 1149h116l-13 -223h-86z" />
<glyph unicode="&#xe0e;&#xe3a;" horiz-adv-x="1024" d="M100 0v86h111v328q0 32 -7.5 57t-19.5 44t-27 33t-30 24q27 59 69 103.5t96 74t116 44.5t130 15q47 0 93 -7.5t87.5 -23t76.5 -40.5t60 -60t40 -80.5t15 -103.5v-752h-112q-18 18 -45 34t-62 28t-75 19t-82 7q-36 0 -70 -7t-66 -19t-62 -28.5t-56 -35.5v98q22 16 52 30 t64.5 24.5t70 17t67.5 6.5q49 0 93.5 -8.5t80 -20.5t61 -24.5t38.5 -20.5v646q0 56 -18.5 99t-53.5 73t-85 45.5t-112 15.5q-38 0 -80 -6.5t-82 -23.5t-76 -45t-64 -70q16 -8 29.5 -23t24 -35.5t17.5 -47.5q7 -26 7 -60v-410h-214zM768 -408q0 17 6 32t17 26.5t26 17.5t33 6 q16 0 30.5 -6t25.5 -17.5t17.5 -26t6.5 -32.5q0 -17 -6.5 -31.5t-17.5 -25.5t-25.5 -18t-30.5 -7q-18 0 -33 7t-26 18t-17 25.5t-6 31.5z" />
<glyph unicode="&#xe0f;&#xe3a;" horiz-adv-x="1024" d="M100 0v86h111v328q0 32 -7.5 57t-19.5 44t-27 33t-30 24q27 59 69 103.5t96 74t116 44.5t130 15q47 0 93 -7.5t87.5 -23t76.5 -40.5t60 -60t40 -80.5t15 -103.5v-752h-105q-8 22 -22.5 38t-33 27t-39.5 17q-20 6 -42 6q-19 0 -38 -5t-35.5 -16t-29.5 -27.5t-20 -39.5h-82 q-7 22 -20.5 39t-31 28t-38.5 17t-41 6t-38 -5.5t-33 -16.5t-25.5 -28t-14.5 -40h-86q3 40 21 73t44.5 56t60 36t69.5 13q56 0 100 -23.5t72 -68.5q14 22 32.5 38t39 27t42.5 16q24 5 46 5q23 0 44 -4t39.5 -11.5t34.5 -17t27 -21.5v632q0 56 -19.5 99t-55.5 72t-85 43.5 t-109 14.5q-36 0 -79 -7.5t-85 -25t-79 -45t-59 -67.5q16 -8 29.5 -23t24 -35.5t17.5 -47.5q7 -26 7 -60v-410h-214zM768 -408q0 17 6 32t17 26.5t26 17.5t33 6q16 0 30.5 -6t25.5 -17.5t17.5 -26t6.5 -32.5q0 -17 -6.5 -31.5t-17.5 -25.5t-25.5 -18t-30.5 -7q-18 0 -33 7 t-26 18t-17 25.5t-6 31.5z" />
<glyph unicode="&#xe0e;&#xe38;" horiz-adv-x="1024" d="M100 0v86h111v328q0 32 -7.5 57t-19.5 44t-27 33t-30 24q27 59 69 103.5t96 74t116 44.5t130 15q47 0 93 -7.5t87.5 -23t76.5 -40.5t60 -60t40 -80.5t15 -103.5v-752h-112q-18 18 -45 34t-62 28t-75 19t-82 7q-36 0 -70 -7t-66 -19t-62 -28.5t-56 -35.5v98q22 16 52 30 t64.5 24.5t70 17t67.5 6.5q49 0 93.5 -8.5t80 -20.5t61 -24.5t38.5 -20.5v646q0 56 -18.5 99t-53.5 73t-85 45.5t-112 15.5q-38 0 -80 -6.5t-82 -23.5t-76 -45t-64 -70q16 -8 29.5 -23t24 -35.5t17.5 -47.5q7 -26 7 -60v-410h-214zM738 -346h172v-264h-97v178h-75v86z" />
<glyph unicode="&#xe0f;&#xe38;" horiz-adv-x="1024" d="M100 0v86h111v328q0 32 -7.5 57t-19.5 44t-27 33t-30 24q27 59 69 103.5t96 74t116 44.5t130 15q47 0 93 -7.5t87.5 -23t76.5 -40.5t60 -60t40 -80.5t15 -103.5v-752h-105q-8 22 -22.5 38t-33 27t-39.5 17q-20 6 -42 6q-19 0 -38 -5t-35.5 -16t-29.5 -27.5t-20 -39.5h-82 q-7 22 -20.5 39t-31 28t-38.5 17t-41 6t-38 -5.5t-33 -16.5t-25.5 -28t-14.5 -40h-86q3 40 21 73t44.5 56t60 36t69.5 13q56 0 100 -23.5t72 -68.5q14 22 32.5 38t39 27t42.5 16q24 5 46 5q23 0 44 -4t39.5 -11.5t34.5 -17t27 -21.5v632q0 56 -19.5 99t-55.5 72t-85 43.5 t-109 14.5q-36 0 -79 -7.5t-85 -25t-79 -45t-59 -67.5q16 -8 29.5 -23t24 -35.5t17.5 -47.5q7 -26 7 -60v-410h-214zM738 -346h172v-264h-97v178h-75v86z" />
<glyph unicode="&#xe0e;&#xe39;" horiz-adv-x="1024" d="M100 0v86h111v328q0 32 -7.5 57t-19.5 44t-27 33t-30 24q27 59 69 103.5t96 74t116 44.5t130 15q47 0 93 -7.5t87.5 -23t76.5 -40.5t60 -60t40 -80.5t15 -103.5v-752h-112q-18 18 -45 34t-62 28t-75 19t-82 7q-36 0 -70 -7t-66 -19t-62 -28.5t-56 -35.5v98q22 16 52 30 t64.5 24.5t70 17t67.5 6.5q49 0 93.5 -8.5t80 -20.5t61 -24.5t38.5 -20.5v646q0 56 -18.5 99t-53.5 73t-85 45.5t-112 15.5q-38 0 -80 -6.5t-82 -23.5t-76 -45t-64 -70q16 -8 29.5 -23t24 -35.5t17.5 -47.5q7 -26 7 -60v-410h-214zM432 -344h168v-98q0 -52 27 -80.5 t79 -28.5q51 0 79 28q28 29 28 81v98h97v-98q0 -37 -12 -69.5t-36.5 -57.5t-63 -39t-92.5 -14q-58 0 -96.5 15t-62 42.5t-34.5 64.5t-11 80h-70v76z" />
<glyph unicode="&#xe0f;&#xe39;" horiz-adv-x="1024" d="M100 0v86h111v328q0 32 -7.5 57t-19.5 44t-27 33t-30 24q27 59 69 103.5t96 74t116 44.5t130 15q47 0 93 -7.5t87.5 -23t76.5 -40.5t60 -60t40 -80.5t15 -103.5v-752h-105q-8 22 -22.5 38t-33 27t-39.5 17q-20 6 -42 6q-19 0 -38 -5t-35.5 -16t-29.5 -27.5t-20 -39.5h-82 q-7 22 -20.5 39t-31 28t-38.5 17t-41 6t-38 -5.5t-33 -16.5t-25.5 -28t-14.5 -40h-86q3 40 21 73t44.5 56t60 36t69.5 13q56 0 100 -23.5t72 -68.5q14 22 32.5 38t39 27t42.5 16q24 5 46 5q23 0 44 -4t39.5 -11.5t34.5 -17t27 -21.5v632q0 56 -19.5 99t-55.5 72t-85 43.5 t-109 14.5q-36 0 -79 -7.5t-85 -25t-79 -45t-59 -67.5q16 -8 29.5 -23t24 -35.5t17.5 -47.5q7 -26 7 -60v-410h-214zM432 -344h168v-98q0 -52 27 -80.5t79 -28.5q51 0 79 28q28 29 28 81v98h97v-98q0 -37 -12 -69.5t-36.5 -57.5t-63 -39t-92.5 -14q-58 0 -96.5 15t-62 42.5 t-34.5 64.5t-11 80h-70v76z" />
<glyph unicode="&#xd;" horiz-adv-x="579" />
<glyph unicode=" "  horiz-adv-x="389" />
<glyph unicode="&#x09;" horiz-adv-x="389" />
<glyph unicode="&#xa0;" horiz-adv-x="389" />
<glyph unicode="!" horiz-adv-x="444" d="M158 0v121h128v-121h-128zM166 676v268h114v-268v2q-8 -109 -15 -215.5t-15 -214.5h-54l-30 430v-2z" />
<glyph unicode="&#x22;" horiz-adv-x="641" d="M148 588v356h92v-356h-92zM402 588v356h88v-356h-88z" />
<glyph unicode="#" horiz-adv-x="887" d="M133 280v70h135l31 218h-129v69h137l39 281h74l-41 -281h176l39 281h76l-42 -281h126v-69h-134l-30 -218h125v-70h-133l-44 -280h-69l39 280h-176l-43 -280h-72l41 280h-125zM340 350h178l29 218h-177z" />
<glyph unicode="$" horiz-adv-x="887" d="M49 282h105q2 -54 22 -92.5t54 -64t79 -39.5t97 -18v362l-66 10q-26 4 -55.5 12t-58 20t-55.5 29.5t-47 42t-32 57.5t-12 75q0 59 21 107.5t62 84.5t102 56.5t141 23.5v109h63v-111q58 -4 113.5 -20.5t101.5 -48.5t77 -80.5t40 -114.5h-105q-6 27 -18 54.5t-37.5 51.5 t-67 41t-104.5 23v-332l101 -16q18 -3 45 -9t56 -17t58 -27.5t52 -41.5t38 -59t15 -78q0 -58 -15 -101.5t-41 -76t-61 -55t-76 -36t-85 -20.5t-87 -7v-116h-63v118q-46 2 -90 10t-83 23t-72 38t-57 56t-39 77t-16 100zM184 684q0 -24 9 -46.5t28 -41.5t50.5 -33.5 t76.5 -22.5l58 -10v326q-42 -1 -82 -10.5t-71 -29.5t-50 -52.5t-19 -79.5zM469 66q56 2 103.5 15t81.5 37t53.5 57t19.5 75q0 35 -10 61t-31 44.5t-53 30.5t-76 20l-88 14v-354z" />
<glyph unicode="%" horiz-adv-x="1325" d="M92 692q0 56 14 102t41.5 79t70 52t100.5 19t100 -19t70 -52t41 -79t13 -102q0 -55 -13 -101.5t-41 -79.5t-70 -52t-100 -19t-100.5 19t-70 52t-41.5 79.5t-14 101.5zM182 692q0 -91 35 -138.5t101 -47.5t100 47.5t34 138.5q0 90 -34 137t-100 47q-65 0 -100.5 -47 t-35.5 -137zM368 0l506 944h90l-505 -944h-91zM782 238q0 56 13.5 102t41 79t69.5 52q44 19 102 19t101 -19t71 -52t42 -79q13 -46 13 -102t-13.5 -102t-41.5 -79.5t-71 -52t-101 -18.5t-101 18.5t-70.5 52t-41 79.5t-13.5 102zM872 238q0 -92 35 -138.5t101 -46.5 q64 0 100.5 47t36.5 138q0 90 -36.5 137t-100.5 47q-65 0 -100 -46q-36 -46 -36 -138z" />
<glyph unicode="&#x26;" horiz-adv-x="1081" d="M119 252q0 42 14.5 82t46 76t81 68t120.5 58q-36 33 -58.5 61.5t-36.5 53.5t-19 47t-5 42q0 45 15 82.5t44 64.5t71 42q44 15 98 15q52 0 93 -15.5t70 -42t44 -62.5t15 -76q0 -27 -9.5 -56.5t-32 -58.5t-59.5 -57t-93 -52l280 -266q14 21 24 39.5t17 37t11 39t6 44.5h92 q-2 -26 -7 -52t-15 -53.5t-25 -57t-37 -61.5l207 -194h-137l-125 119q-28 -36 -65.5 -62t-81 -43.5t-91 -25.5t-94.5 -8q-68 0 -121 11.5t-92.5 31.5t-67.5 46.5t-45 57t-24.5 63t-7.5 62.5zM226 256q0 -21 5 -43.5t17 -44.5t31.5 -42t48 -34.5t66.5 -23t88 -8.5 q36 0 72.5 5.5t70 19.5t63.5 37q32 22 56 56l-316 306q-62 -26 -101 -54t-62 -56t-31 -58t-8 -60zM354 746q0 -21 7 -40.5t21 -39.5t34.5 -42t48.5 -48q42 18 71.5 38t48.5 41t27 43t8 42q0 24 -9 46t-26 39t-41 27t-52 10q-36 0 -62 -10t-43 -26t-25 -37t-8 -43z" />
<glyph unicode="'" horiz-adv-x="444" d="M176 588v356h92v-356h-92z" />
<glyph unicode="(" horiz-adv-x="542" d="M148 346q0 164 66 312t198 286h78q-46 -48 -88 -112t-74 -141t-51 -164.5t-19 -180.5t19 -179.5t51 -163.5t74 -142t88 -113h-78q-132 137 -198 285.5t-66 312.5z" />
<glyph unicode=")" horiz-adv-x="542" d="M53 -252q46 48 87.5 113t73.5 142t51 163.5t19 179.5t-19 180.5t-51 164.5t-74 141t-87 112h78q132 -138 198.5 -286t66.5 -312t-66.5 -312.5t-198.5 -285.5h-78z" />
<glyph unicode="*" horiz-adv-x="616" d="M74 766l32 72l162 -66v172h78v-172l166 66l30 -72l-176 -68l132 -130l-56 -48l-135 138l-131 -140l-53 52l123 128z" />
<glyph unicode="+" horiz-adv-x="796" d="M74 324v90h278v280h92v-280h279v-90h-279v-279h-92v279h-278z" />
<glyph unicode="," horiz-adv-x="444" d="M152 0v133h141v-125q0 -36 -6.5 -70t-23.5 -62t-44 -48q-27 -18 -67 -26v50q21 6 35.5 17t24.5 28t15 42t5 61h-80z" />
<glyph unicode="-" horiz-adv-x="715" d="M74 324v90h567v-90h-567z" />
<glyph unicode="." horiz-adv-x="444" d="M152 0v133h141v-133h-141z" />
<glyph unicode="/" horiz-adv-x="540" d="M12 -22l412 988h104l-414 -988h-102z" />
<glyph unicode="0" horiz-adv-x="895" d="M76 459q0 66 8 127.5t26 114.5t46.5 97t69.5 76t95.5 49t122.5 17q70 0 125 -17t96 -49t70 -76t47 -97t26.5 -114.5t8.5 -127.5t-8.5 -128t-26.5 -115.5t-47 -97.5t-70 -75t-96 -48t-125 -17q-69 0 -123 17t-95 48t-69.5 75t-46.5 97.5t-26 115.5t-8 128zM182 459 q0 -30 3 -71t12 -85.5t26.5 -88t46.5 -78t71.5 -55.5t102.5 -21t103.5 21t73 55.5t46.5 78t26.5 88t12 85.5t2.5 71q0 22 -1 51t-5.5 61t-13 65.5t-21.5 65.5t-33 60t-47 49t-62 33t-81 12q-45 0 -79.5 -12t-61.5 -33t-46.5 -49t-33 -60t-21.5 -65.5t-12 -65.5t-6 -61 t-2 -51z" />
<glyph unicode="1" horiz-adv-x="895" d="M196 666v88q56 -2 98 6t72.5 21.5t50.5 32t32.5 38t18.5 39t9 37.5h80v-928h-107v717q-18 -11 -37.5 -21t-48 -17t-68.5 -11q-42 -4 -100 -2z" />
<glyph unicode="2" horiz-adv-x="895" d="M86 0q6 54 24 99t44 82t58 67t68 55.5t74 47t76 40.5q49 26 94 50.5t79.5 54t54.5 66.5t20 87q0 54 -19 92.5t-50 63.5t-72 37t-85 12q-63 0 -108.5 -16.5t-76.5 -46.5t-48 -71.5t-21 -93.5h-100q3 68 26 125t66.5 99t109.5 65q64 23 152 23q86 0 148.5 -22.5t103 -61.5 t60.5 -91.5t20 -113.5q0 -46 -12 -84t-32.5 -68.5t-49 -56t-61.5 -47t-70 -40.5t-73 -37q-42 -21 -82 -41.5t-76 -45.5t-66 -57t-51 -78h573v-94h-698z" />
<glyph unicode="3" horiz-adv-x="895" d="M80 266h102q6 -60 30 -100t60 -63t80 -32t92 -9q60 0 107 13.5t80 39t50 61.5t17 80q0 46 -19 81t-53 59t-80 36q-48 12 -102 12h-61v82h73q48 0 85 11t62.5 31t39 49.5t13.5 66.5q0 50 -21 83.5t-53 53t-71.5 27.5t-76.5 8q-102 0 -160 -50t-67 -146h-103q8 70 35.5 123 t71 88t101.5 52t126 17q84 0 146 -20.5t102 -55t59 -78.5t19 -92q0 -30 -7 -60t-25 -57t-50 -48t-82 -33q56 -13 95 -34.5t63.5 -50.5t35.5 -66t11 -81q0 -58 -20.5 -110t-63.5 -91t-109 -62t-156 -23h-39t-52 3.5t-61 11t-63 20.5t-60 34t-50.5 51.5t-35 72t-15.5 95.5z " />
<glyph unicode="4" horiz-adv-x="895" d="M62 232v102l503 594h95v-616h164v-80h-164v-232h-99v232h-499zM148 312h413v484z" />
<glyph unicode="5" horiz-adv-x="895" d="M92 221h104q20 -83 84 -121t170 -38q30 0 61 5t59 16t53 28.5t43.5 43t29 60t10.5 78.5q0 58 -20 100.5t-54.5 70.5t-80 42t-97.5 14q-32 0 -64 -5t-62 -16t-57 -28t-48 -41l-100 8l80 490h541v-92h-468l-48 -310q32 23 63 38t62 23.5t61 11.5t59 3q38 0 77.5 -6 t77.5 -20t71.5 -37t59 -57t40 -79t14.5 -104q0 -72 -26.5 -131t-74.5 -101t-117 -64.5t-155 -22.5q-74 0 -135 18t-106 50t-72.5 76.5t-34.5 96.5z" />
<glyph unicode="6" horiz-adv-x="895" d="M86 440q0 90 12.5 160t34 122t49.5 88t60.5 60.5t67 38t67 20.5t62 9t53.5 2q25 0 54.5 -4t59.5 -13t59 -25t53.5 -39.5t42 -56t25.5 -75.5h-100q-8 35 -27 60t-46 41t-60 23t-69 7q-40 0 -77 -8t-70 -26.5t-60 -49.5t-48 -77.5t-33 -110.5t-14 -148q23 43 54.5 74.5 t69.5 51.5t81.5 30t89.5 10q38 0 78.5 -6.5t78.5 -21t72 -38.5t59 -59t39.5 -81t14.5 -105q0 -34 -8.5 -71t-26.5 -72t-46 -66.5t-67.5 -55t-90 -37t-113.5 -13.5q-100 0 -172.5 31t-118.5 91t-68 146t-22 194zM209 291q0 -47 15.5 -89t46.5 -74t78.5 -51t111.5 -19 t111.5 19t78.5 51t46 74t15 89q0 46 -14 87.5t-43.5 73.5t-76 51t-109.5 19q-64 0 -112.5 -21t-81.5 -54t-49.5 -74t-16.5 -82z" />
<glyph unicode="7" horiz-adv-x="895" d="M92 830v98h688v-98q-73 -97 -134.5 -194.5t-111.5 -199.5t-88.5 -210t-64.5 -226h-113q28 112 70 223t95 217t117.5 204t137.5 186h-596z" />
<glyph unicode="8" horiz-adv-x="895" d="M80 254q0 36 12 67.5t30.5 57t42 46.5t47.5 36t46.5 25t38.5 14q-48 18 -81.5 40t-54 47t-29.5 53t-9 60q0 57 22.5 101.5t64.5 75.5t102 47t136 16q75 0 135.5 -16t102.5 -47t65 -75t23 -102q0 -31 -10 -59.5t-31.5 -54.5t-55 -48t-81.5 -38q50 -10 91 -33t69 -55 t43.5 -72t15.5 -86q0 -28 -6.5 -59.5t-22.5 -62t-43 -58.5t-68 -49.5t-97 -34.5q-58 -12 -132 -12t-130 12.5t-96.5 34t-67.5 49.5t-43 58.5t-22.5 62t-6.5 59.5zM186 252q0 -38 15 -73t46.5 -61.5t81 -42t117.5 -15.5q70 0 120 15.5t82 42t46 61.5t14 73q0 40 -14 77.5 t-46 65.5t-82 45q-50 16 -120 16q-69 0 -118 -16.5t-80.5 -44.5t-46.5 -65.5t-15 -77.5zM230 694q0 -30 13 -58t40.5 -50t68.5 -36q40 -14 96 -14t97 14t68 36t41 50t14 58q0 29 -14 58.5t-41 52.5t-68 37t-97 14t-96.5 -14t-68 -37t-40.5 -52t-13 -59z" />
<glyph unicode="9" horiz-adv-x="895" d="M72 624q0 34 8 71t26.5 72t47 66.5t67.5 55t89.5 37.5t113.5 14q100 0 172 -31.5t119 -91t68.5 -145.5t21.5 -195q0 -90 -12.5 -159.5t-33.5 -121.5t-50 -88.5t-61 -61t-66 -38t-67 -20.5t-63 -8.5t-52 -1.5q-25 0 -54.5 3.5t-60 13t-60 25t-53.5 39t-42 56.5t-26 75h101 q8 -36 27 -60t46 -40t60.5 -23t69.5 -7q40 0 76.5 7.5t69 26t60.5 49.5t48 78t32 110.5t14 147.5q-23 -43 -54.5 -74t-69.5 -51.5t-81 -30t-89 -9.5q-38 0 -79 6t-79 21t-71 39t-58.5 58.5t-40.5 80.5q-14 45 -14 105zM178 626q0 -46 14 -87.5t44 -73.5t76 -50.5t110 -18.5 t112.5 20.5t81 54t49.5 74.5t17 81q0 47 -15.5 89.5t-47 74.5t-78.5 51t-111 19t-111 -19t-78.5 -51t-47 -74.5t-15.5 -89.5z" />
<glyph unicode=":" horiz-adv-x="444" d="M152 0v133h141v-133h-141zM152 549v133h141v-133h-141z" />
<glyph unicode=";" horiz-adv-x="444" d="M152 0v133h141v-125q0 -36 -6.5 -70t-23.5 -62t-44 -48q-27 -18 -67 -26v50q21 6 35.5 17t24.5 28t15 42t5 61h-80zM152 549v133h141v-133h-141z" />
<glyph unicode="&#x3c;" horiz-adv-x="796" d="M72 293v82l653 293v-92l-549 -242l549 -242v-90z" />
<glyph unicode="=" horiz-adv-x="846" d="M98 196v90h650v-90h-650zM98 450v92h650v-92h-650z" />
<glyph unicode="&#x3e;" horiz-adv-x="796" d="M72 2v90l546 242l-546 242v92l653 -293v-82q-164 -72 -326.5 -145.5t-326.5 -145.5z" />
<glyph unicode="?" horiz-adv-x="887" d="M96 674q4 61 21 106.5t44 77.5t61 53t71 33.5t75 17t72 4.5q64 0 121 -17t100.5 -52t69 -87.5t25.5 -121.5q0 -48 -14.5 -84.5t-38 -66t-52.5 -53.5t-59 -46q-26 -20 -50 -38.5t-42.5 -40t-30.5 -46.5q-13 -25 -15 -57h-94q2 48 16 83t35 61t48 47t55 41q27 19 51.5 38.5 t43 42.5t29.5 52.5t11 68.5q0 51 -17.5 87.5t-46.5 60.5t-68 35t-83 11q-50 0 -92 -14t-73 -40.5t-51 -65.5q-20 -40 -24 -90h-98zM342 0v121h129v-121h-129z" />
<glyph unicode="@" horiz-adv-x="1061" d="M58 475q0 68 17.5 130.5t49.5 116t77 97t100 74.5t118 48t131 17q61 0 118 -13t108 -37t93 -59t72 -79t47 -97t17 -112q0 -61 -15.5 -112t-41 -93t-58.5 -73.5t-68 -53t-70 -32.5t-65 -11q-14 0 -26 6t-21.5 17t-15.5 28q-7 17 -7 41q-32 -44 -76 -68t-92 -24 q-42 0 -76 17t-59 45t-39 66t-14 82q0 42 9 84t26.5 80.5t43 71.5t57 57.5t70 38.5t81.5 14q48 0 87.5 -27t69.5 -87l29 91h80l-100 -349q-6 -17 -10.5 -35.5t-4 -34.5t9 -26t30.5 -10q24 0 47 11t45 30t40 45t32 57t22 66t8 72q0 82 -31 145.5t-84 107.5t-122.5 67.5 t-145.5 23.5q-58 0 -110.5 -15.5t-99 -43.5t-84.5 -67t-65 -86t-42 -100t-15 -108q0 -58 15.5 -110.5t43.5 -99t67 -84.5t86.5 -65t102 -42t113.5 -15q42 0 86 9.5t85.5 26.5t77.5 43t62 60h86q-33 -48 -75.5 -86t-93.5 -65t-110 -41t-122 -14q-71 0 -136 17t-120.5 48 t-101 75t-77.5 98t-49 118t-17 133zM358 406q0 -31 9 -57t25 -45t37.5 -29.5t47.5 -10.5q28 0 53 12t46.5 32t39.5 47t30 56t19 59t7 56q0 27 -9 51.5t-25 43.5t-37 30t-46 11q-28 0 -54 -12t-47.5 -31t-39.5 -45t-30 -54t-19 -58t-7 -56z" />
<glyph unicode="A" horiz-adv-x="999" d="M20 0l412 944h133l414 -944h-119l-118 284h-478l-118 -284h-126zM301 377h399l-196 487z" />
<glyph unicode="B" horiz-adv-x="1030" d="M123 0v944h499q72 0 124 -15.5t85.5 -45t49.5 -71.5t16 -97q0 -38 -7.5 -71.5t-24.5 -60.5t-45 -47.5t-66 -33.5q50 -12 85 -33t57 -51t32 -68.5t10 -85.5q0 -49 -17 -96.5t-51.5 -84.5t-88 -60t-125.5 -23h-533zM230 96h388q63 0 104.5 15t65.5 40t34 56t10 65 q0 33 -10.5 64.5t-34.5 56t-62.5 39t-96.5 14.5h-398v-350zM230 540h388q42 0 74.5 13t54 34t32.5 49t11 58q0 38 -10 67t-31 49t-55 30t-82 10h-382v-310z" />
<glyph unicode="C" horiz-adv-x="1077" d="M72 475q0 69 13.5 132.5t41 118t67.5 99.5t93 77t118 49t142 17q44 0 92.5 -6t96 -21t92 -40.5t79.5 -63.5t59 -90q24 -53 32 -121h-107q-7 54 -31.5 100t-66 79t-101 52t-135.5 19q-87 0 -157 -25.5t-119 -77t-76 -129.5t-27 -183q0 -50 9 -98t28 -91.5t48 -81t70 -65 t95 -42.5t121 -15q63 0 118 15t99 48t76 84.5t49 124.5h107q-12 -74 -49 -140.5t-95.5 -116t-136 -78.5t-170.5 -29q-56 0 -113.5 11t-110.5 36t-99 64t-80 94t-53 128t-19 166z" />
<glyph unicode="D" horiz-adv-x="1044" d="M123 0v944h455q102 0 176.5 -33t123 -94t72 -145t23.5 -186q0 -66 -9.5 -127.5t-29.5 -115.5t-51 -98.5t-74.5 -76.5t-99.5 -50q-55 -18 -125 -18h-461zM230 96h350q58 0 102 16t76 44t53 65t33 80t17 89t5 92t-5 90.5t-19 85.5t-37 76t-58 60.5t-83 40.5t-113 15h-321 v-754z" />
<glyph unicode="E" horiz-adv-x="934" d="M123 0v944h719v-94h-612v-318h591v-90h-591v-346h622v-96h-729z" />
<glyph unicode="F" horiz-adv-x="862" d="M123 0v944h690v-94h-583v-318h554v-98h-554v-434h-107z" />
<glyph unicode="G" horiz-adv-x="1147" d="M88 456q0 90 19 163t52 130t78.5 98.5t98 68t110 39.5t115.5 13q45 0 91.5 -5t91 -19t85.5 -36t76 -55t63 -78t44 -103h-115q-18 50 -47 87.5t-69.5 62.5t-92.5 37.5t-118 12.5q-64 0 -117 -15t-94.5 -42t-72.5 -64.5t-51.5 -82t-30.5 -95.5t-10 -104q0 -72 15 -129 t42 -101.5t63 -76t77.5 -52t87 -29.5t91.5 -9q74 0 138 24.5t113 68.5t79 104.5t36 132.5h-303v96h399v-498h-70l-26 148q-26 -32 -61 -63t-80 -55.5t-102 -39t-128 -14.5q-90 0 -160.5 21t-123.5 57t-90 84t-60 102t-33 110q-10 54 -10 106z" />
<glyph unicode="H" horiz-adv-x="1126" d="M123 0v944h107v-393h667v393h107v-944h-107v456h-667v-456h-107z" />
<glyph unicode="I" horiz-adv-x="381" d="M137 0v944h107v-944h-107z" />
<glyph unicode="J" horiz-adv-x="776" d="M49 301h99q0 -64 14 -110t40.5 -75.5t64.5 -42.5q37 -13 85 -13q46 0 82.5 14.5t61 42.5t37 68.5t12.5 92.5v666h109v-655q0 -88 -23 -147.5t-63 -96t-94 -52t-118 -15.5q-72 0 -122 15t-84 40.5t-54 59t-30 69.5t-13 72t-4 67z" />
<glyph unicode="K" horiz-adv-x="1001" d="M123 0v944h109v-504l560 504h144l-438 -395l466 -549h-134l-414 482l-184 -166v-316h-109z" />
<glyph unicode="L" horiz-adv-x="833" d="M123 0v944h109v-850h564v-94h-673z" />
<glyph unicode="M" horiz-adv-x="1347" d="M123 0v944h168l383 -834l383 834h167v-944h-106v854l-20 -47l-365 -807h-119l-362 790l-22 58v-848h-107z" />
<glyph unicode="N" horiz-adv-x="1118" d="M123 0v944h133l633 -819v819h107v-944h-134l-632 819v-819h-107z" />
<glyph unicode="O" horiz-adv-x="1147" d="M70 473q0 60 12 120.5t37 115.5t65 102.5t96 82t129 54.5t165 20t164.5 -20t128.5 -54.5t95.5 -82t65.5 -102.5t37.5 -115t11.5 -121t-11.5 -121.5t-37.5 -116t-65.5 -102.5t-95.5 -82t-129 -55q-72 -20 -164 -20t-165 20t-129 55t-96 82t-65 102.5t-37 116t-12 121.5z M176 473q0 -102 30.5 -177.5t84 -126.5t125.5 -76q74 -25 158 -25t156.5 25t126 76t84 126.5t30.5 177.5q0 100 -30.5 176t-84 126.5t-126 75.5t-156.5 25t-157 -25t-126.5 -75.5t-84 -126t-30.5 -176.5z" />
<glyph unicode="P" horiz-adv-x="950" d="M123 0v944h463q149 0 223.5 -67t74.5 -195q0 -66 -18 -119.5t-55 -92t-91 -60t-126 -21.5h-362v-389h-109zM232 486h346q57 0 95 15t61.5 41t33.5 61t10 75q0 39 -11 70.5t-33 54.5t-55 35t-77 12h-370v-364z" />
<glyph unicode="Q" horiz-adv-x="1147" d="M70 473q0 60 12 120.5t37 115.5t65 102.5t96 82t129 54.5t165 20t164.5 -20t128.5 -54.5t95.5 -82t65.5 -102.5t37.5 -115t11.5 -121q0 -56 -9.5 -110.5t-29.5 -105.5t-52 -96t-76 -81l122 -100l-55 -70l-147 118q-51 -24 -115 -38q-63 -14 -141 -14q-92 0 -165 20 t-129 55t-96 82t-65 102.5t-37 116t-12 121.5zM176 473q0 -102 30.5 -177.5t84 -126.5t125.5 -76q74 -25 158 -25q92 0 172 30l-107 88l57 68l134 -108q32 24 58 57t44.5 74t28.5 90t10 106q0 100 -30.5 176t-84 126.5t-126 75.5t-156.5 25t-157 -25t-126.5 -75.5t-84 -126 t-30.5 -176.5z" />
<glyph unicode="R" horiz-adv-x="1038" d="M123 0v944h551q44 0 79.5 -10t63 -27t48 -41t33.5 -51t19.5 -56t6.5 -59q0 -42 -8.5 -79t-29 -69.5t-54.5 -58t-86 -41.5q36 -12 61 -30t42 -39.5t27 -47t15 -53.5t7.5 -57t4.5 -59q2 -22 3.5 -43t5.5 -42t9.5 -41.5t14.5 -39.5h-110q-8 21 -13 43.5t-7.5 45.5t-4.5 47 q-3 24 -5 46q-2 30 -7 59t-14 54t-23.5 47t-36 38t-51.5 25t-70 9h-362v-414h-109zM232 510h384q56 0 94.5 15.5t62 40t34 54.5t10.5 60q0 38 -8.5 69.5t-27.5 54t-50 34.5t-77 12h-422v-340z" />
<glyph unicode="S" horiz-adv-x="905" d="M53 293h107q2 -60 28 -101.5t68 -67t96.5 -37t114.5 -11.5t111.5 13t88.5 36.5t58 57.5t21 77q0 36 -11 62t-32 44t-54 30t-77 20l-222 34q-26 4 -56 12t-60 20t-57 29.5t-48 42t-33 57.5t-12 75q0 62 23 112t68 86t112 55t153 19q44 0 87 -6t83 -19t75 -34t63 -51 t47 -69t26 -87h-106q-4 20 -12 41t-21.5 40t-35.5 36t-53 30t-73 20t-98 7q-28 0 -56 -4t-54 -12t-48 -22t-38.5 -33t-26 -44t-9.5 -57q0 -24 9 -46t29 -41t52 -34t78 -22l226 -37q19 -3 46.5 -9t57.5 -16.5t59.5 -27.5t53 -42t38.5 -59t15 -78q0 -59 -16 -103.5t-44 -77.5 t-65.5 -55t-80.5 -35.5t-89.5 -19t-91.5 -5.5q-51 0 -101 5.5t-95 19t-84.5 36.5t-68.5 57t-46.5 81t-18.5 108z" />
<glyph unicode="T" horiz-adv-x="858" d="M22 850v94h814v-94h-354v-850h-107v850h-353z" />
<glyph unicode="U" horiz-adv-x="1059" d="M123 340v604h107v-616q0 -69 21 -118.5t60 -80.5t95 -45t124 -14t123.5 14t94.5 45t60.5 80t21.5 119v616h106v-604q0 -181 -99 -271.5t-307 -90.5t-307.5 90.5t-99.5 271.5z" />
<glyph unicode="V" horiz-adv-x="987" d="M24 944h126l348 -848l348 848h116l-401 -944h-127z" />
<glyph unicode="W" horiz-adv-x="1464" d="M24 944h118l254 -838l268 838h141l270 -834l256 834h109l-308 -944h-124l-275 852l-277 -852h-132z" />
<glyph unicode="X" horiz-adv-x="932" d="M24 0l369 484l-352 460h137l291 -391l293 391h133l-361 -460l371 -484h-139l-305 408l-301 -408h-136z" />
<glyph unicode="Y" horiz-adv-x="971" d="M24 944h136l328 -460l329 460h129l-408 -544v-400h-106v393z" />
<glyph unicode="Z" horiz-adv-x="901" d="M37 0v102l688 748h-641v94h770v-98l-690 -750h700v-96h-827z" />
<glyph unicode="[" horiz-adv-x="542" d="M168 -252v1196h280v-84h-178v-1028h178v-84h-280z" />
<glyph unicode="\" horiz-adv-x="540" d="M12 966h102l414 -988h-104z" />
<glyph unicode="]" horiz-adv-x="542" d="M94 -168h178v1028h-178v84h281v-1196h-281v84z" />
<glyph unicode="^" horiz-adv-x="801" d="M94 389l260 533h88l268 -533h-96l-212 451l-218 -451h-90z" />
<glyph unicode="_" horiz-adv-x="661" d="M2 -104h660v-68h-660v68z" />
<glyph unicode="`" horiz-adv-x="327" d="M45 968h137q24 -42 50 -83l52 -82h-84z" />
<glyph unicode="a" horiz-adv-x="882" d="M82 180q0 44 15 79t48.5 61t87.5 44q53 18 131 27l144 17q30 3 55 8.5t43 16.5t27.5 28.5t9.5 44.5q0 42 -17 68.5t-46.5 41t-68 20t-81.5 5.5q-44 0 -84 -6.5t-70 -22.5t-50 -44t-23 -70h-89q17 114 98.5 165.5t223.5 51.5q34 0 69 -3.5t68 -11.5t62 -22t51 -35 t34.5 -50t12.5 -69v-374q0 -42 17.5 -59t54.5 -17h17.5t17.5 2v-74q-23 -3 -45.5 -4.5t-40.5 -1.5q-20 0 -38.5 5.5t-33 18t-24.5 34.5q-11 20 -15 52q-24 -34 -58 -58t-73.5 -39t-81.5 -22t-82 -7q-54 0 -95 8.5t-70.5 23.5t-49 34.5t-30.5 42t-16 46t-5 45.5zM182 184 q0 -30 13 -54t36 -41t55 -26.5t72 -9.5q35 0 70.5 8t66.5 22.5t58 35.5t47 47t31.5 56t11.5 62v99q-13 -14 -28 -23.5t-33 -15t-40 -9t-48 -5.5l-142 -18q-42 -6 -74 -14.5t-53 -23t-32 -36.5t-11 -54z" />
<glyph unicode="b" horiz-adv-x="925" d="M112 0v944h99v-368q27 37 60 61.5t69 39.5t74 21t76 6q75 0 140 -24t113 -70t75.5 -113.5t27.5 -154.5q0 -86 -27.5 -153.5t-75.5 -114t-113.5 -70.5t-139.5 -24q-37 0 -75.5 6t-74.5 20t-69 38t-58 58q0 -18 -1 -46t-1 -56h-99zM203 342q0 -32 7 -65t21.5 -64t36 -58.5 t51 -47.5t67.5 -31.5t85 -11.5q72 0 123 23t83.5 61.5t47.5 89t15 104.5q0 66 -19 118t-54 87.5t-84.5 54t-111.5 18.5q-59 0 -108 -20t-85 -56.5t-55.5 -88t-19.5 -113.5z" />
<glyph unicode="c" horiz-adv-x="856" d="M82 342q0 76 22 144t66.5 119t111 80.5t154.5 29.5q62 0 118 -15.5t101 -44.5t75 -73t42 -100h-106q-8 34 -28.5 62t-50 48t-67.5 30.5t-80 10.5q-66 0 -113 -22.5t-78 -61.5t-46 -91.5t-15 -111.5q0 -60 14 -112t44.5 -90.5t78.5 -59.5q47 -22 115 -22q90 0 149 41 t81 131h102q-20 -70 -52 -119t-75 -79t-95 -43t-112 -13q-64 0 -115.5 14.5t-91 40t-68 60.5t-46.5 75.5t-26.5 84t-8.5 87.5z" />
<glyph unicode="d" horiz-adv-x="925" d="M80 342q0 87 27.5 154.5t75.5 113.5t113 70t140 24q38 0 75.5 -5t73 -19t68.5 -37t62 -59v360h98v-944h-98q0 28 -1.5 56t-1.5 46q-26 -34 -58 -58t-68 -38t-74.5 -20t-75.5 -6q-75 0 -140 24t-113 70.5t-75.5 114t-27.5 153.5zM186 342q0 -54 15 -104.5t47 -89t83 -61.5 t123 -23q46 0 84.5 11.5t68.5 31.5t51.5 47.5t36 58.5t21.5 64t7 65q0 62 -19.5 113.5t-55.5 88t-85 56.5t-109 20q-62 0 -111.5 -18.5t-84 -54t-53.5 -87.5t-19 -118z" />
<glyph unicode="e" horiz-adv-x="903" d="M82 346q0 74 23 141t70 118t119 80.5t169 29.5q44 0 87 -9t82.5 -28.5t73.5 -50.5t59 -74.5t39 -100.5q15 -56 15 -128v-2h-633q4 -63 29 -111.5t63 -80.5t84 -48t92 -16q29 0 61 5t62.5 18.5t56.5 37.5q26 23 46 61h110q-26 -54 -62.5 -93t-80 -65t-91 -38t-93.5 -12 q-98 0 -169.5 29t-118.5 79t-70 117t-23 141zM186 396h526q-9 58 -31.5 101t-56 72.5t-77 44t-93.5 14.5q-48 0 -92 -15t-80 -44t-61 -73t-35 -100z" />
<glyph unicode="f" horiz-adv-x="463" d="M12 614v78h138v96q0 46 13 77t38 50t61.5 27t83.5 8q25 0 46.5 -2t45.5 -6v-76q-14 2 -31.5 3t-29.5 1q-36 0 -60.5 -3t-40 -12t-22 -25t-6.5 -44v-94h190v-78h-190v-614h-98v614h-138z" />
<glyph unicode="g" horiz-adv-x="925" d="M82 356q0 62 14.5 112.5t40 90t60 68t74 47t82.5 27.5t85 9t82 -6t76 -21t68 -41q32 -24 57 -62l2 114h101v-643q0 -92 -22 -156.5t-68 -106.5t-119 -61.5t-175 -19.5q-35 0 -70 2.5t-68.5 9t-63.5 19t-55 33.5t-43 51q-18 32 -26 74h101q10 -34 30.5 -56t50.5 -34 t70 -16.5t88 -4.5q74 0 126 18t83.5 49t45.5 73q14 41 14 89v119q-37 -48 -74 -74.5t-73 -39.5t-70 -15q-36 -2 -66 -2q-44 0 -88 9t-84 28t-74 47.5t-59 68t-39 89.5t-14 112zM188 354q0 -60 18 -108.5t52 -83.5t82 -54q48 -20 110 -20q59 0 109.5 21t86.5 57t56.5 84 t20.5 104q0 54 -19.5 103t-55.5 87t-86 60q-52 22 -112 22q-64 0 -112.5 -20t-82 -56t-50.5 -86t-17 -110z" />
<glyph unicode="h" horiz-adv-x="880" d="M112 0v944h99v-354q30 42 65.5 67t73 38t75 17.5t71.5 4.5q59 0 108.5 -14t86.5 -43t57 -72.5t20 -103.5v-484h-100v471q0 40 -10 71.5t-33 52.5t-61 32.5t-97 11.5q-34 0 -65.5 -8.5t-60 -25t-52.5 -39t-41.5 -50.5t-27 -60t-9.5 -67v-389h-99z" />
<glyph unicode="i" horiz-adv-x="354" d="M125 832v112h105v-112h-105zM127 0v692h101v-692h-101z" />
<glyph unicode="j" horiz-adv-x="354" d="M-24 -176h34q32 0 54 4t36 14t20.5 26t6.5 42v782h101v-758q0 -54 -12 -92t-36.5 -62t-63 -35t-92.5 -11q-20 0 -32 1t-16 1v88zM125 832v112h105v-112h-105z" />
<glyph unicode="k" horiz-adv-x="809" d="M123 0v944h100v-578l385 326h148l-322 -266l342 -426h-124l-296 366l-133 -110v-256h-100z" />
<glyph unicode="l" horiz-adv-x="344" d="M123 0v944h98v-944h-98z" />
<glyph unicode="m" horiz-adv-x="1366" d="M112 0v692h99v-102q24 32 55.5 55.5t66.5 39.5t73 24t76 8q36 0 72 -6.5t67.5 -22.5t58 -42t43.5 -64q50 70 120.5 102.5t168.5 32.5q16 0 40.5 -3.5t51.5 -12.5t54 -26t48.5 -42.5t35.5 -62t14 -84.5v-486h-101v465q0 46 -12.5 79t-34.5 54t-52 31t-65 10 q-30 0 -61.5 -8t-60 -22.5t-53.5 -35.5t-43.5 -46t-29 -55t-10.5 -62v-410h-100v456q0 50 -12.5 85t-34.5 57t-52 31.5t-65 9.5q-31 0 -62 -8.5t-59.5 -24.5t-53.5 -38.5t-43.5 -50t-29 -59.5t-10.5 -67v-391h-99z" />
<glyph unicode="n" horiz-adv-x="878" d="M112 0v692h99v-108q30 42 65.5 67.5t73 40t75 20t71.5 5.5q59 0 108.5 -14t86.5 -43t57 -72.5t20 -103.5v-484h-100v471q0 38 -11 68.5t-34 52.5t-58.5 34t-85.5 13q-55 0 -104 -21t-85 -56.5t-57.5 -81.5t-21.5 -97v-383h-99z" />
<glyph unicode="o" horiz-adv-x="925" d="M82 346q0 74 23 141t70 118t119 80.5t169 29.5q98 0 169.5 -29.5t118.5 -80.5t70 -118t23 -141t-23 -141t-70 -117t-119 -79t-169 -29q-98 0 -169.5 29t-118.5 79t-70 117t-23 141zM188 346q0 -35 6.5 -69.5t20 -66t35 -59t52 -47.5t70.5 -31t91 -11t91 11t71 31t52 47.5 t34.5 59t20 66.5t6.5 69q0 36 -6.5 71t-20 66.5t-34.5 59t-52 47.5t-71 31.5t-91 11.5q-76 0 -128.5 -25t-85 -65.5t-47 -92t-14.5 -104.5z" />
<glyph unicode="p" horiz-adv-x="925" d="M112 -260v952h99q0 -14 0.5 -29t0.5 -29v-26q1 -12 1 -22q26 34 58.5 58t68.5 38t74 20t76 6q75 0 140 -24t113 -70.5t75.5 -114t27.5 -153.5q0 -87 -27.5 -154.5t-75.5 -113.5t-113.5 -70t-139.5 -24q-38 0 -76 6t-74 21t-69 40t-60 61v-372h-99zM203 346 q0 -62 19.5 -113.5t55.5 -88t85 -56.5t108 -20q62 0 111.5 18.5t84.5 54t54 87.5t19 118q0 54 -15 104.5t-47.5 89t-83.5 61.5t-123 23q-46 0 -84.5 -11.5t-68 -31.5t-51 -47.5t-36 -58.5t-21.5 -64t-7 -65z" />
<glyph unicode="q" horiz-adv-x="925" d="M80 346q0 86 27.5 153.5t75.5 114t113 70.5t140 24q37 0 75.5 -6t74.5 -20t68 -38t58 -58q0 10 1 22t1 26t0.5 29t0.5 29h98v-952h-98v372q-27 -37 -60 -61.5t-69 -39.5t-74 -21t-76 -6q-75 0 -140 24t-113 70t-75.5 113.5t-27.5 154.5zM186 346q0 -66 19 -118 t53.5 -87.5t84 -54t111.5 -18.5q59 0 108.5 20t85.5 56.5t55.5 88t19.5 113.5q0 32 -7 65t-21.5 64t-36 58.5t-51.5 47.5t-68 31q-39 12 -85 12q-72 0 -123 -23t-83 -61.5t-47 -89t-15 -104.5z" />
<glyph unicode="r" horiz-adv-x="561" d="M112 0v692h99v-124q28 46 58.5 74t62.5 42t64.5 18t62.5 4h31.5t27.5 -4v-108q-18 4 -35 6t-41 2q-52 0 -94 -16t-73 -47t-47.5 -78.5t-16.5 -110.5v-350h-99z" />
<glyph unicode="s" horiz-adv-x="809" d="M76 196h100q2 -24 14 -48.5t39 -44t69 -31.5q44 -12 106 -12q64 0 107 10.5t68.5 28t36 39.5t10.5 44t-6 40t-21.5 32t-43.5 24q-27 10 -71 17l-212 31q-34 4 -65 17.5t-55 35.5t-39 52q-15 31 -15 69q0 50 21 90t59 67.5t92 42.5t123 15q76 0 132.5 -16t95 -44t60.5 -67 q21 -38 29 -82h-102q-4 28 -20 51.5t-43 41t-65 27t-87 9.5q-34 0 -69.5 -6t-63.5 -20t-46 -37.5t-18 -57.5q0 -22 6 -39t20 -30t40 -22t66 -15l180 -25q116 -20 171.5 -64.5t55.5 -111.5q0 -58 -23 -101t-65.5 -71.5t-102.5 -41.5t-136 -13q-37 0 -74.5 3t-72.5 12.5 t-66 25t-56 39.5t-41 58t-22 78z" />
<glyph unicode="t" horiz-adv-x="512" d="M26 616v76h140v213h98v-213h195v-76h-195v-476q0 -26 11 -41t28.5 -23t40 -10t45.5 -2q18 0 36.5 1t33.5 5v-86q-25 -3 -52 -4.5t-53 -1.5q-37 0 -70.5 5.5t-60 21.5t-42 45t-15.5 75v491h-140z" />
<glyph unicode="u" horiz-adv-x="880" d="M112 209v483h101v-471q0 -36 10.5 -65t33.5 -50.5t59 -33.5t86 -14q56 0 104 20t84.5 54.5t58 80t21.5 96.5v383h98v-692h-98v108q-30 -42 -66 -67.5t-73 -40t-75 -19.5t-71 -5q-59 0 -109 14t-86 42.5t-57 72.5t-21 104z" />
<glyph unicode="v" horiz-adv-x="784" d="M20 692h117l259 -604l256 604h110l-308 -692h-124z" />
<glyph unicode="w" horiz-adv-x="1218" d="M37 692h111l212 -598l187 598h121l186 -594l223 594h105l-268 -692h-122l-186 598l-188 -598h-117z" />
<glyph unicode="x" horiz-adv-x="809" d="M30 0l304 358q-32 38 -67.5 80.5t-72 86t-72.5 86.5q-34 43 -66 81h134l216 -262l216 262h134l-287 -334q35 -40 74 -86t79 -92t79 -92t75 -88h-141l-235 289l-236 -289h-134z" />
<glyph unicode="y" horiz-adv-x="784" d="M20 692h117l259 -604l256 604h110l-360 -821q-22 -50 -44.5 -81.5t-49 -49.5t-59 -24.5t-75.5 -6.5q-22 0 -41 1.5t-39 3.5v83q14 -2 29 -3t33 -1q34 0 56 4.5t38 16.5t29.5 33t29.5 55l35 70z" />
<glyph unicode="z" horiz-adv-x="805" d="M66 0v86l518 524h-494v82h629v-80l-525 -530h546v-82h-674z" />
<glyph unicode="{" horiz-adv-x="444" d="M72 307v76q21 3 40.5 16t34.5 34t24 49t9 63v225q0 40 12 72t32 53t44 32q26 11 50 11h88v-74h-56q-22 0 -35.5 -9t-21.5 -24t-11 -35q-4 -18 -4 -40v-228q0 -42 -13 -73t-31.5 -54t-40 -37.5t-37.5 -21.5q18 -7 39 -21t40 -35.5t31 -52t12 -69.5v-226q0 -23 3.5 -43 t11.5 -35t21.5 -23.5t35.5 -8.5h56v-74h-88q-24 0 -49 11t-45 32t-32 53t-12 72v226q0 33 -9.5 60.5t-25 48t-34.5 33.5t-39 17z" />
<glyph unicode="|" horiz-adv-x="299" d="M102 -22v988h90v-988h-90z" />
<glyph unicode="}" horiz-adv-x="444" d="M39 -172h55q22 0 36 8.5t22 23.5t11 35.5t3 42.5v226q0 39 12.5 69.5t31 52t40 35.5t39.5 21q-17 7 -38.5 21.5t-40 37.5t-31.5 55q-13 30 -13 72v228q0 22 -3 41t-11 34t-22 24t-36 9h-55v74h88q24 0 48.5 -11t44.5 -32t32 -53t12 -72v-225q0 -34 9 -62.5t24.5 -49.5 t35 -34t39.5 -16v-76q-20 -4 -39 -17t-34.5 -33.5t-25 -48.5t-9.5 -60v-226q0 -40 -12 -72t-32 -53t-44 -32t-49 -11h-88v74z" />
<glyph unicode="~" horiz-adv-x="796" d="M102 318q16 30 34 50t37.5 31.5t41 16t45.5 4.5q18 0 42 -7t51 -17.5t54 -23t52 -22.5t46 -17t35 -7q30 0 59 20t57 70q10 -18 18 -33.5t18 -32.5q-16 -28 -34 -47t-37 -31t-39 -17q-22 -5 -44 -5q-20 0 -43.5 7t-49 18t-50.5 23t-50 23t-47 18t-40 7q-31 0 -59.5 -24 t-56.5 -72z" />
<glyph unicode="&#xa2;" horiz-adv-x="887" d="M94 342q0 72 20 136t60 114.5t99 82t139 37.5v124h72v-124q56 -4 106 -20t89.5 -45.5t67 -71t37.5 -93.5h-106q-7 32 -24.5 57t-43 44.5t-58 31.5t-68.5 16v-569q76 6 127 48t71 124h102q-18 -66 -47 -112t-68 -76t-85 -46t-100 -18v-126h-72v126q-58 4 -104 20.5t-81 43 t-60 60.5t-41.5 72.5t-24 80t-7.5 83.5zM200 346q0 -56 12 -105t37 -86t65 -61t98 -30v564q-54 -7 -94 -31.5t-66 -62.5t-39 -86t-13 -102z" />
<glyph unicode="&#xa3;" horiz-adv-x="887" d="M74 424v49h94q-26 44 -40 91.5t-14 91.5q0 34 9.5 68t29 65t48.5 58t68 47.5t89 32t111 11.5q80 0 142.5 -20t106.5 -56t68 -89t27 -117h-109q-3 43 -18.5 79t-46 62.5t-75 41.5t-105.5 15q-54 0 -98.5 -17t-75.5 -46t-47.5 -70t-16.5 -88q0 -12 2.5 -29.5t7.5 -38.5 t15 -44.5t24 -47.5h272v-49h-253q15 -31 23 -62.5t8 -56.5q0 -23 -6 -49t-20 -53t-38 -56t-60 -57q44 17 83.5 20.5t70.5 3.5q28 0 61.5 -6.5t68 -14.5t67.5 -14.5t61 -6.5q40 0 86 15t90 44q4 -13 7 -24t5.5 -21t5.5 -20t7 -23q-24 -18 -48.5 -30.5t-48.5 -19.5t-48 -10 t-50 -3q-36 0 -74 8t-77 18t-79 18.5t-81 8.5q-57 0 -104 -12.5t-76 -32.5l-43 82q33 22 58.5 45.5t43.5 51t27.5 59.5t9.5 69q0 28 -8 63q-9 35 -27 66h-110z" />
<glyph unicode="&#xa5;" horiz-adv-x="971" d="M24 944h136l328 -460l329 460h129l-358 -479h219v-80h-269v-117h269v-78h-269v-190h-106v190h-266v78h266v117h-266v80h213z" />
<glyph unicode="&#xa9;" horiz-adv-x="1061" d="M45 473q0 72 18.5 136t50.5 117.5t77.5 96.5t99.5 72.5t114.5 45t124.5 15.5t125 -15.5t115 -45t99 -72.5t78 -96.5t51 -117.5t18 -136t-18 -136.5t-51 -118.5t-78 -97t-99 -72.5t-115 -45t-125 -15.5t-124.5 15.5t-114.5 45t-99.5 72.5t-77.5 97t-50.5 118.5 t-18.5 136.5zM135 473q0 -58 14 -110.5t39.5 -97.5t61.5 -81t80 -61.5t94 -38.5q50 -14 106 -14q54 0 105 13.5t95 39t80 61.5t62 81t40 97.5t14 110.5t-14 109.5t-40 96.5t-62 81t-80 61.5t-94 38.5q-52 14 -106 14q-56 0 -106 -13.5t-94 -39t-80 -61.5t-61.5 -81 t-39.5 -97t-14 -109zM280 475q0 62 18.5 114.5t53 91.5t83.5 61t112 22q40 0 76.5 -13t66 -37.5t50.5 -58.5q22 -33 32 -75h-86q-14 46 -51 73t-93 27q-42 0 -73.5 -15.5t-53.5 -43t-33.5 -65t-11.5 -81.5q0 -43 12.5 -80.5t35.5 -65.5t55.5 -44.5t73.5 -16.5q27 0 50 7 t42 21t31 34t18 45h88q-10 -42 -32 -76.5t-52 -59.5t-66.5 -39t-76.5 -14q-61 0 -110.5 22t-84.5 61t-54.5 92t-19.5 114z" />
<glyph unicode="&#xab;" horiz-adv-x="739" d="M112 303v129l222 166v-116l-162 -114l162 -114v-117zM406 303v129l220 166v-116l-161 -114l161 -114v-117z" />
<glyph unicode="&#xad;" horiz-adv-x="715" d="M74 324v90h567v-90h-567z" />
<glyph unicode="&#xae;" horiz-adv-x="1061" d="M45 473q0 72 18.5 136t50.5 117.5t77.5 96.5t99.5 72.5t114.5 45t124.5 15.5t125 -15.5t115 -45t99 -72.5t78 -96.5t51 -117.5t18 -136t-18 -136.5t-51 -118.5t-78 -97t-99 -72.5t-115 -45t-125 -15.5t-124.5 15.5t-114.5 45t-99.5 72.5t-77.5 97t-50.5 118.5 t-18.5 136.5zM135 473q0 -58 14 -110.5t39.5 -97.5t61.5 -81t80 -61.5t94 -38.5q50 -14 106 -14q54 0 105 13.5t95 39t80 61.5t62 81t40 97.5t14 110.5t-14 109.5t-40 96.5t-62 81t-80 61.5t-94 38.5q-52 14 -106 14q-56 0 -106 -13.5t-94 -39t-80 -61.5t-61.5 -81 t-39.5 -97t-14 -109zM344 200v546h209q100 0 151.5 -37t51.5 -117q0 -36 -12.5 -62t-34 -44t-50.5 -27t-63 -13q38 -59 80 -122q43 -64 82 -124h-88l-148 244h-104v-244h-74zM418 502h127q28 0 53.5 2t45 12t31 29t11.5 53q0 28 -12.5 45.5t-32 27t-42.5 12.5t-46 3h-135 v-184z" />
<glyph unicode="&#xbb;" horiz-adv-x="739" d="M112 137v117l162 114l-162 114v116l222 -166v-129zM406 137v117l159 114l-159 114v116l220 -166v-129z" />
<glyph unicode="&#xbc;" horiz-adv-x="1325" d="M53 766v62h13q46 0 74.5 10t46 25t24.5 33t10 32h70v-537h-84v403q-11 -6 -24 -11t-30 -9t-41.5 -6.5t-58.5 -1.5zM307 0l510 928h93l-512 -928h-91zM770 123v67l314 346h71v-350h95v-63h-95v-123h-80v123h-305zM844 186h231v258z" />
<glyph unicode="&#xbd;" horiz-adv-x="1325" d="M53 766v62q50 -2 82 8t50.5 25.5t25.5 33.5q7 19 10 33h70v-537h-84v403q-11 -6 -24 -11t-30 -9t-41.5 -6.5t-58.5 -1.5zM286 0l510 928h93l-512 -928h-91zM794 0q4 47 25.5 81.5t52 60.5t66.5 45.5t72 35.5q30 14 58 29t49 32.5t34 38.5t13 49q0 26 -11 46t-29 32 t-41 18.5t-49 6.5q-33 0 -58.5 -9.5t-43.5 -24.5t-28 -35q-10 -22 -13 -44h-78q2 38 16 70t41 55t68.5 36t97.5 13q54 0 94.5 -12t67 -34.5t39.5 -52.5q13 -31 13 -65q0 -42 -17 -72t-43 -53t-60 -40t-67 -33q-20 -10 -39.5 -19.5t-38.5 -21t-36 -27.5q-17 -14 -33 -36h334 v-70h-456z" />
<glyph unicode="&#xbe;" horiz-adv-x="1325" d="M66 540h80q4 -28 19 -46t37 -30t49 -17t54 -5q37 0 63 6.5t42.5 19t24 30.5t7.5 40q0 24 -10 43.5t-28.5 33t-45 20t-59.5 6.5h-37v57h45q57 0 83 24t26 64q0 26 -10.5 42t-27.5 25t-39 12t-46 3q-33 0 -56.5 -6.5t-39 -19t-24 -30.5t-11.5 -40h-78q3 42 20.5 71.5 t45.5 49t65 28.5t80 9q56 0 95.5 -12t64.5 -31t37 -44t12 -53q0 -17 -6 -34.5t-19 -33.5t-35 -29t-53 -19q34 -6 60.5 -19t43.5 -31t25 -38.5t8 -40.5q0 -15 -2.5 -33t-10.5 -36.5t-23 -36t-39.5 -30.5t-59.5 -21.5t-84 -8.5q-14 0 -35.5 1.5t-47.5 7t-52.5 16t-49 28.5 t-38.5 44t-20 64zM422 0l510 928h92l-512 -928h-90zM790 123v67l314 346h72v-350h94v-63h-94v-123h-80v123h-306zM864 186h232v258z" />
<glyph unicode="&#xd7;" horiz-adv-x="796" d="M110 137l232 229l-232 232l58 58l230 -232l230 232l58 -58l-232 -232l232 -229l-58 -57l-230 232l-230 -232z" />
<glyph unicode="&#xf7;" horiz-adv-x="846" d="M98 324v90h650v-90h-650zM340 94q0 17 7 32.5t18 26.5t26.5 18t32.5 7q16 0 31 -7t26 -18t18 -26.5t7 -32.5q0 -16 -7 -30.5t-18 -25.5t-26 -17.5t-31 -6.5q-17 0 -32.5 6.5t-26.5 17.5t-18 25.5t-7 30.5zM340 643q0 16 7 31t18 26.5t26.5 18t32.5 6.5q16 0 31 -6.5 t26 -18t18 -26.5t7 -31q0 -17 -7 -32t-18 -27t-26 -18.5t-31 -6.5q-17 0 -32.5 6.5t-26.5 18.5t-18 27t-7 32z" />
<glyph unicode="&#xe01;" horiz-adv-x="991" d="M74 559q28 62 71 109t98 78.5t119 47t134 15.5q47 0 93.5 -7.5t89 -24.5t79 -42.5t63.5 -62t42 -84.5t15 -109v-479h-104v469q0 58 -19 104.5t-55 78t-87.5 48.5t-116.5 17q-44 0 -89 -8.5t-87 -27t-78 -48t-62 -70.5q16 -9 30 -24t24.5 -36.5t17 -50t6.5 -63.5v-389 h-102v396q0 33 -8 59t-20 46t-26 34.5t-28 23.5z" />
<glyph unicode="&#xe02;" horiz-adv-x="815" d="M41 708v84h182l201 -718l200 718h107l-227 -792h-164l-200 708h-99z" />
<glyph unicode="&#xe03;" horiz-adv-x="862" d="M106 792h88q2 -16 9 -30t18.5 -25t27 -18t33.5 -7q22 0 39 6.5t30 17t21 25.5t11 31h99v-136q0 -22 -6.5 -40t-20 -36.5t-33.5 -39.5q-22 -20 -50 -48q-24 -24 -42.5 -43t-32 -37.5t-21.5 -37.5q-8 -20 -8 -44v-78q0 -44 15 -78t40 -58t59 -36t72 -12q36 0 71 8.5t61 29 t42.5 54.5t16.5 84v548h103v-558q0 -42 -12 -78t-33 -64t-49 -48.5t-60.5 -34.5t-68 -20.5t-71.5 -6.5q-38 0 -74 7.5t-68 22.5t-60 37.5t-48 50.5t-31 63t-11 77v61q0 40 7 70t22.5 55t38.5 48q22 24 54 52q18 17 36.5 33.5t32.5 34.5t22.5 39t7.5 45v12q-18 -23 -49 -34 q-32 -11 -64 -11q-12 0 -27 2t-33 8t-35.5 16.5t-32 26.5t-24.5 40q-10 22 -12 54z" />
<glyph unicode="&#xe04;" horiz-adv-x="989" d="M114 0v494q0 56 15.5 101t42 80t63 60t79 42t88.5 24.5t92 7.5t92.5 -7.5t89 -24.5t78.5 -42t63 -60t42 -80t15 -101v-494h-102v496q0 51 -20.5 92.5t-57 70.5t-88.5 45q-50 17 -112 17q-60 0 -111 -16.5t-88 -45.5t-57.5 -71t-20.5 -92v-182q48 72 117 108q70 37 164 37 v-84q-69 -3 -121.5 -26t-88 -61t-53.5 -90t-18 -114v-84h-103z" />
<glyph unicode="&#xe05;" horiz-adv-x="989" d="M114 0v518q0 64 22 113t58 84t83 55t98 26l119 -112l118 112q52 -6 99 -26t83.5 -55t58 -84t21.5 -113v-518h-102v520q0 34 -9 63.5t-27 53t-44 39.5t-61 24l-129 -114q-10 -8 -18 0l-128 114q-34 -7 -60 -23t-44 -39.5t-26.5 -53.5t-8.5 -64v-206q48 72 117 108 q70 37 164 37v-84q-69 -3 -121.5 -26t-88 -61t-53.5 -90t-18 -114v-84h-103z" />
<glyph unicode="&#xe06;" horiz-adv-x="983" d="M62 792h88q2 -16 9 -30t18 -25t26 -18t35 -7q22 0 39 6.5t29.5 17t20.5 25.5t11 31h98v-124q0 -24 -6 -45t-19.5 -41t-34 -41t-48.5 -49q-18 -16 -35 -35t-29.5 -40t-20 -42t-7.5 -43q0 -30 11.5 -60t32 -59t49.5 -54t63 -44t72 -30t78 -11q44 0 84.5 14t71.5 43t49.5 72 t18.5 100v489h102v-501q0 -69 -24 -125t-67 -96t-103 -61t-134 -21q-38 0 -78 7t-80 25t-78 48t-70 74v-142h-103v293q0 40 7.5 72t21.5 59t34 51.5t46 50.5q18 19 36 36.5t32 34.5t22 37t8 44v12q-18 -23 -49 -34t-63 -11q-12 0 -28 2t-33.5 8t-35 16.5t-32 26.5t-23.5 40 q-10 22 -12 54z" />
<glyph unicode="&#xe07;" horiz-adv-x="780" d="M62 465h104l114 -311q9 -26 26.5 -43t37.5 -26t42 -12t40 -3q9 0 22.5 2t29 7t31 14t27.5 22t19.5 31t7.5 42v520h-111v84h214v-602q0 -50 -20 -88.5t-53 -64t-76.5 -38.5t-90.5 -13q-43 0 -81 8t-69.5 26t-56.5 48q-25 32 -41 76z" />
<glyph unicode="&#xe08;" horiz-adv-x="876" d="M64 586q18 56 54 97t85.5 69t111 42.5t129.5 14.5q32 0 72 -5t79.5 -17.5t76.5 -32.5t65.5 -49.5t46 -70.5t17.5 -94q0 -40 -10.5 -84t-29.5 -91t-43 -95t-51 -94.5t-55.5 -91t-54.5 -84.5h-157l-185 362h-115v88h186l196 -386q20 32 42.5 70t45 78t43.5 82t37 83t26 80 t10 73q0 50 -22 86.5t-58 60t-81 35t-91 11.5q-40 0 -78.5 -7.5t-71.5 -24.5t-59.5 -43t-44.5 -62h-116z" />
<glyph unicode="&#xe09;" horiz-adv-x="958" d="M106 602q7 43 34.5 81t73.5 66.5t109.5 45t143.5 16.5q96 0 167.5 -26.5t117.5 -70t69 -100.5q23 -56 23 -118v-496h-104v127q-37 -52 -77.5 -82.5t-82.5 -46.5t-84 -20t-82 -4q-66 0 -120 19t-92.5 55.5t-59.5 90t-21 121.5v166h102v-152q0 -49 12.5 -90t39.5 -70.5 t69 -46t102 -16.5q34 0 69.5 10t68 28.5t61 43.5t49.5 55t33.5 64t12.5 70v190q0 40 -19 79t-53.5 70t-85 50.5t-115.5 19.5q-56 0 -98.5 -11.5t-73.5 -29.5t-50 -41t-26 -47h-113z" />
<glyph unicode="&#xe0a;" horiz-adv-x="901" d="M102 694v82q18 6 37 11t36 8t31 4.5t24 1.5q34 0 63 -7.5t50 -23t32.5 -39.5t11.5 -57q0 -26 -5.5 -48t-17 -43t-28 -44t-39.5 -49q-16 -18 -30 -36t-25.5 -36t-18 -38t-6.5 -42v-96q0 -45 20.5 -77.5t52.5 -53.5t73 -31t81 -10t80 7.5t72.5 27t53 51.5t20.5 82v86 q0 34 -7 58.5t-19 41.5t-29 27.5t-38 15.5t-45 7q-22 2 -48 3h-7v72h5q53 0 91 12.5t63 41.5t37 75t13 114h104q0 -29 -2.5 -58.5t-9 -57t-17.5 -53t-30 -46.5t-46 -37.5t-65 -25.5l11 -2q44 -10 71.5 -33t42.5 -50t21 -55t6 -50v-88q0 -46 -13.5 -83t-37 -65t-55.5 -48.5 t-68.5 -33t-75.5 -18.5q-40 -6 -78 -6q-63 0 -122.5 15t-105.5 47t-74 80t-28 112v104q0 27 7 49.5t20 43.5t31 43t39 46q18 20 31.5 36.5t22.5 32t14 32.5t5 37t-8 31t-20 17t-26 7.5t-25 1.5q-20 0 -48.5 -6.5t-54.5 -16.5z" />
<glyph unicode="&#xe0b;" horiz-adv-x="907" d="M39 792h88q2 -16 9 -30t18.5 -25t26.5 -18t34 -7q22 0 39 6.5t29.5 17t20.5 25.5t12 31h98v-128q0 -23 -7 -42.5t-20 -38.5t-34 -41t-48 -50q-16 -17 -31.5 -35t-27 -37t-18.5 -39.5t-7 -42.5v-96q0 -45 20.5 -77.5t52.5 -53.5t73 -31t81 -10t80.5 7.5t73 27t52.5 51.5 t20 82v86q0 52 -15 82t-40 45.5t-59 20t-72 5.5h-6v72h4q53 0 91 12.5t63 41.5t37 75t13 114h104q0 -29 -2.5 -58.5t-9 -57t-17.5 -53t-30 -46.5t-46 -37.5t-65 -25.5l11 -2q44 -10 71.5 -33t42.5 -50t21 -55t6 -50v-88q0 -46 -13.5 -83t-37 -65t-55.5 -48.5t-68.5 -33 t-75.5 -18.5q-40 -6 -78 -6q-63 0 -122 15t-105.5 47t-74.5 80q-27 48 -27 112v104q0 27 6.5 50t18.5 44.5t30 43t41 44.5q18 18 36 35t32.5 36t23.5 40t9 45v12q-18 -23 -49 -34t-64 -11q-12 0 -27.5 2t-33.5 8t-35 16.5t-32 26.5t-25 40q-9 22 -11 54z" />
<glyph unicode="&#xe0c;" horiz-adv-x="1407" d="M78 570q20 52 55 96t83 75.5t109 49.5t134 18q71 0 133 -16.5t108 -54.5t72 -98t26 -146v-168q0 -30 10 -61t26.5 -60.5t39 -55.5t49.5 -45.5t56 -30.5t59 -11q47 0 76.5 16t46.5 44.5t23 68.5q6 39 6 87v514h102v-528q0 -74 -15 -127t-44 -88t-73 -51t-103 -16 q-26 0 -56.5 4.5t-64 20.5t-68.5 47q-36 30 -70 81v-135h-102v484q0 56 -15 100t-45 75t-74 47.5t-103 16.5q-36 0 -74.5 -7t-74.5 -24t-68 -46q-34 -28 -58 -72q16 -8 30 -23t25 -35.5t17 -47.5q6 -26 6 -60v-324h110v-84h-212v412q0 32 -7.5 57t-19 44t-26.5 33t-29 24z " />
<glyph unicode="&#xe0d;" horiz-adv-x="1399" d="M76 570q20 49 54 92.5t82.5 76t110 51.5t136.5 19q70 0 132 -16.5t108.5 -54.5t72.5 -98t26 -146v-94q0 -54 6 -96.5t23.5 -71t50.5 -43.5q32 -15 88 -15q34 0 64 11t53.5 30.5t42 45.5t30.5 55.5t19 60.5t7 61v354h102v-676q-2 -92 -25 -157t-65 -107t-102 -62 q-62 -20 -138 -20q-57 0 -108 14t-92.5 42t-70.5 71t-42 103h111q18 -74 68 -115t132 -41q64 0 108 23t71 60t39 84t12 97v105q-28 -37 -59 -61.5t-62 -39t-63 -20.5t-62 -6q-58 0 -102.5 16.5t-75 51t-46.5 88.5q-16 52 -16 126v120q0 56 -14.5 99.5t-44 74t-74 46 t-104.5 15.5q-41 0 -80 -7.5t-74 -24.5t-66 -46t-55 -71q16 -8 30 -23t25 -35.5t17 -47.5q6 -26 6 -60v-324h110v-84h-212v412q0 32 -8 57t-20 44t-27 33t-29 24z" />
<glyph unicode="&#xe0e;" horiz-adv-x="1024" d="M100 0v86h111v328q0 32 -7.5 57t-19.5 44t-27 33t-30 24q27 59 69 103.5t96 74t116 44.5t130 15q47 0 93 -7.5t87.5 -23t76.5 -40.5t60 -60t40 -80.5t15 -103.5v-752h-112q-18 18 -45 34t-62 28t-75 19t-82 7q-36 0 -70 -7t-66 -19t-62 -28.5t-56 -35.5v98q22 16 52 30 t64.5 24.5t70 17t67.5 6.5q49 0 93.5 -8.5t80 -20.5t61 -24.5t38.5 -20.5v646q0 56 -18.5 99t-53.5 73t-85 45.5t-112 15.5q-38 0 -80 -6.5t-82 -23.5t-76 -45t-64 -70q16 -8 29.5 -23t24 -35.5t17.5 -47.5q7 -26 7 -60v-410h-214z" />
<glyph unicode="&#xe0f;" horiz-adv-x="1024" d="M100 0v86h111v328q0 32 -7.5 57t-19.5 44t-27 33t-30 24q27 59 69 103.5t96 74t116 44.5t130 15q47 0 93 -7.5t87.5 -23t76.5 -40.5t60 -60t40 -80.5t15 -103.5v-752h-105q-8 22 -22.5 38t-33 27t-39.5 17q-20 6 -42 6q-19 0 -38 -5t-35.5 -16t-29.5 -27.5t-20 -39.5h-82 q-7 22 -20.5 39t-31 28t-38.5 17t-41 6t-38 -5.5t-33 -16.5t-25.5 -28t-14.5 -40h-86q3 40 21 73t44.5 56t60 36t69.5 13q56 0 100 -23.5t72 -68.5q14 22 32.5 38t39 27t42.5 16q24 5 46 5q23 0 44 -4t39.5 -11.5t34.5 -17t27 -21.5v632q0 56 -19.5 99t-55.5 72t-85 43.5 t-109 14.5q-36 0 -79 -7.5t-85 -25t-79 -45t-59 -67.5q16 -8 29.5 -23t24 -35.5t17.5 -47.5q7 -26 7 -60v-410h-214z" />
<glyph unicode="&#xe10;" horiz-adv-x="876" d="M64 586q18 56 54 97t85.5 69t111 42.5t129.5 14.5q36 0 80 -7q42 -6 86 -20h4q20 2 36 10t26 19t17 25t9 28h119q-2 -18 -8.5 -37t-20.5 -36t-36 -32.5t-54 -25.5q44 -28 71.5 -75.5t27.5 -117.5q0 -40 -10.5 -84t-29.5 -91t-43 -95t-51 -94.5t-55.5 -91t-54.5 -84.5 h-157l-185 362h-115v88h186l196 -386q20 32 42.5 70t45 78t43.5 82t37 83t26 80t10 73q0 50 -22 86.5t-58 60t-81 35t-91 11.5q-40 0 -78.5 -7.5t-71.5 -24.5t-59.5 -43t-44.5 -62h-116zM160 -254q0 30 11 56t31 45.5t46 31t55 11.5q30 0 57.5 -13t49.5 -43q17 28 43.5 42 t56.5 14q26 0 51.5 -11t42.5 -35v74h104v-172h-106q-10 32 -34 50q-24 20 -52 18q-24 -2 -44 -19q-22 -17 -32 -49h-59q-8 32 -28.5 50t-45.5 18q-12 0 -23.5 -4.5t-20.5 -13t-16 -21t-9 -29.5h-78z" />
<glyph unicode="&#xe11;" horiz-adv-x="1014" d="M66 792h88q2 -16 9 -30t18 -25t26 -18t35 -7q22 0 39 6.5t29.5 17t20.5 25.5t11 31h98v-132q54 40 104.5 68t95.5 45t83 25q37 7 67 7q24 0 44.5 -6.5t35 -23.5t22 -46t7.5 -73v-656h-103v600v49t-4.5 35t-14 20t-27.5 6q-24 0 -58 -12t-71 -31.5t-76 -44t-75 -50.5 t-66 -51t-50 -44q-28 -28 -47 -48t-29.5 -40.5t-15 -45.5t-4.5 -63v-280h-102v264q0 43 2.5 73.5t11 55.5t24.5 47t42 46l65 61q14 14 22.5 28.5t12.5 30.5t5 34.5t1 39.5q-22 -24 -51 -31.5t-61 -7.5q-12 0 -28 2.5t-33.5 8.5t-35 17t-32 28t-23.5 41q-10 22 -12 54z" />
<glyph unicode="&#xe12;" horiz-adv-x="1446" d="M114 0v518q0 64 20 115t54 86t80 55q44 20 96 22l115 -108l105 108q52 -4 100 -24t85 -55t59 -85t22 -114v-198q0 -27 8 -56.5t23 -58.5t36 -54.5t46 -45t54 -30.5t60 -11q53 0 83.5 16.5t46 46t19.5 69.5q3 40 3 88v508h102v-522q0 -74 -14 -128.5t-42 -90t-70.5 -52.5 t-100.5 -17q-30 0 -61.5 4t-64 18t-65.5 43t-63 78v-125h-104v520q0 34 -10 64t-29 54t-45.5 40t-59.5 20l-110 -106q-6 -6 -12 -6t-13 6l-117 106q-34 -4 -59 -20t-42 -40t-24.5 -54.5t-7.5 -63.5v-410l244 271h-89v78h191v-84l-337 -375h-112z" />
<glyph unicode="&#xe13;" horiz-adv-x="1407" d="M78 570q20 52 55 96t83 75.5t109 49.5t134 18q71 0 133 -16.5t108 -54.5t72 -98t26 -146v-216q0 -48 6.5 -87.5t23 -68t46.5 -44.5t76 -16q30 0 59 11t56 30.5t50 45.5t39.5 55.5t26 60.5t9.5 61v466h102v-792h-102v135q-34 -52 -69 -82t-68.5 -46t-64 -20.5t-56.5 -4.5 q-58 0 -102 16t-74 51t-45 88t-15 127v228q0 113 -60 171t-177 58q-39 0 -77.5 -7t-74 -23.5t-66.5 -45.5t-57 -71q16 -8 30 -23t25 -35.5t17 -47.5q6 -26 6 -60v-324h110v-84h-212v412q0 32 -7.5 57t-19 44t-26.5 33t-29 24z" />
<glyph unicode="&#xe14;" horiz-adv-x="997" d="M114 0v494q0 56 16 101t43 80t64.5 60t80 42t88.5 24.5t92 7.5t92 -7.5t88.5 -24.5t80 -42t65 -60t43 -80t15.5 -101v-494h-104v496q0 51 -20.5 92.5t-57.5 70.5t-88.5 45.5t-113.5 16.5t-113.5 -16.5t-89 -45.5t-58 -71t-20.5 -92v-390l265 273h-103v80h211v-84 l-364 -375h-112z" />
<glyph unicode="&#xe15;" horiz-adv-x="997" d="M114 0v518q0 64 22 113t59 84t85 55t99 26l119 -108l118 108q52 -6 100 -26t85 -55t59 -84t22 -113v-518h-104v520q0 34 -10 64t-28 53.5t-45 40t-60 22.5l-129 -112q-3 -4 -8.5 -4t-7.5 4l-130 112q-34 -7 -60 -23t-45 -39.5t-28.5 -53.5t-9.5 -64v-414l265 273h-103v80 h211v-84l-364 -375h-112z" />
<glyph unicode="&#xe16;" horiz-adv-x="995" d="M74 559q28 62 71 109t98 78.5t119 47t134 15.5q47 0 93.5 -7.5t89 -24.5t79 -42.5t63.5 -62t42 -84.5t15 -109v-479h-104v469q0 58 -19 104.5t-55 78t-88 48.5t-116 17q-44 0 -89 -8.5t-87 -27t-78 -48t-62 -70.5q16 -9 30 -24t24.5 -36.5t17 -50t6.5 -63.5v-305h110v-84 h-212v396q0 33 -8 59t-20 46t-26 34.5t-28 23.5z" />
<glyph unicode="&#xe17;" horiz-adv-x="973" d="M114 0v792h103v-153q44 58 87.5 93t86 54.5t83 26t79.5 6.5q66 0 122.5 -20t96.5 -58t63 -92.5t23 -122.5v-526h-102v514q0 49 -15.5 88.5t-43 67.5t-66 43.5t-84.5 15.5q-47 0 -90 -13.5t-79.5 -36.5t-66 -53t-50.5 -63.5t-32.5 -68t-11.5 -66.5v-428h-103z" />
<glyph unicode="&#xe18;" horiz-adv-x="952" d="M88 578q0 52 27.5 94t77.5 72t119.5 46.5t154.5 16.5q87 0 153.5 -17t113 -47.5t74.5 -72.5t36 -94h-106q-6 32 -28 58t-57 45.5t-82 30.5t-104 11q-33 0 -66 -3.5t-63 -11t-56 -19t-46 -26.5t-31 -35q-11 -18 -11 -42q0 -31 38 -53.5t110 -34.5l289 -52 q118 -22 173.5 -76t55.5 -145q0 -60 -26.5 -105.5t-75.5 -75.5t-118.5 -45t-153.5 -15q-42 0 -86.5 3.5t-87 13.5t-80.5 27.5t-67 44.5t-46 65t-17 90v134h103v-134q0 -30 15.5 -59t48.5 -51t86 -35t129 -13t127.5 12t83 32t44.5 45t13 50q0 26 -5 49.5t-20 43.5t-44.5 35 t-78.5 23l-324 56q-38 7 -73 19.5t-61 32.5t-42 47t-16 65z" />
<glyph unicode="&#xe19;" horiz-adv-x="973" d="M114 266v526h103v-514q0 -49 14.5 -88.5t42 -67.5t66 -43t86.5 -15q47 0 89.5 13.5t79.5 37t66.5 54t50.5 64.5t32 69q12 34 12 66v424h102v-792h-102v152q-42 -58 -85 -93t-86 -54t-85 -25t-80 -6q-67 0 -123 20t-96.5 58t-63.5 92t-23 122z" />
<glyph unicode="&#xe1a;" horiz-adv-x="973" d="M114 303v489h103v-491q0 -47 18 -89t52.5 -74t84.5 -50t114 -18t114 19.5t84.5 52t53 74.5t18.5 85v491h102v-489q0 -56 -15 -100.5t-42 -80.5t-63 -62t-77 -43t-86 -25t-89 -8t-89 8t-86 25t-77 43t-62.5 62t-42 81t-15.5 100z" />
<glyph unicode="&#xe1b;" horiz-adv-x="973" d="M114 303v489h103v-491q0 -47 18 -89t52.5 -74t84.5 -50t114 -18t114 19.5t84.5 52t53 74.5t18.5 85v839h102v-837q0 -56 -15 -100.5t-42 -80.5t-63 -62t-77 -43t-86 -25t-89 -8t-89 8t-86 25t-77 43t-62.5 62t-42 81t-15.5 100z" />
<glyph unicode="&#xe1c;" horiz-adv-x="1016" d="M114 207v585h216v-86h-113v-487q0 -45 9.5 -74.5t25.5 -46.5t37 -23.5t43 -6.5q34 0 58.5 16t39.5 44t22 65t7 79v176h102v-176q0 -42 7 -79t22.5 -65t39.5 -44t60 -16q22 0 41.5 6.5t34.5 23.5t23.5 46.5t8.5 74.5v573h103v-585q0 -58 -15.5 -100t-42.5 -69.5t-63 -40.5 t-76 -13q-30 0 -58.5 7t-54.5 22t-47.5 39t-35.5 58q-12 -34 -32.5 -58t-46 -39t-54.5 -22t-57 -7q-42 0 -79 13t-64.5 40.5t-44 69.5t-16.5 100z" />
<glyph unicode="&#xe1d;" horiz-adv-x="1016" d="M114 207v585h216v-86h-113v-487q0 -45 9.5 -74.5t25.5 -46.5t37 -23.5t43 -6.5q34 0 58.5 16t39.5 44t22 65t7 79v176h102v-176q0 -42 7 -79t22.5 -65t39.5 -44t60 -16q22 0 41.5 6.5t34.5 23.5t23.5 46.5t8.5 74.5v921h103v-933q0 -58 -15.5 -100t-42.5 -69.5t-63 -40.5 t-76 -13q-30 0 -58.5 7t-54.5 22t-47.5 39t-35.5 58q-12 -34 -32.5 -58t-46 -39t-54.5 -22t-57 -7q-42 0 -79 13t-64.5 40.5t-44 69.5t-16.5 100z" />
<glyph unicode="&#xe1e;" horiz-adv-x="1224" d="M80 792h114l176 -676l166 676h152l168 -673l176 673h113l-231 -792h-120l-182 717l-182 -717h-118z" />
<glyph unicode="&#xe1f;" horiz-adv-x="1224" d="M80 792h114l176 -676l166 676h152l168 -673l272 1021h113l-327 -1140h-120l-182 717l-182 -717h-118z" />
<glyph unicode="&#xe20;" horiz-adv-x="1024" d="M100 0v86h111v328q0 32 -7.5 57t-19.5 44t-27 33t-30 24q27 59 69 103.5t96 74t116 44.5t130 15q47 0 93 -7.5t87.5 -23t76.5 -40.5t60 -60t40 -80.5t15 -103.5v-494h-103v488q0 56 -18.5 99t-53.5 73t-85 45.5t-112 15.5q-38 0 -80 -6.5t-82 -23.5t-76 -45t-64 -70 q16 -8 29.5 -23t24 -35.5t17.5 -47.5q7 -26 7 -60v-410h-214z" />
<glyph unicode="&#xe21;" horiz-adv-x="971" d="M114 0v792h103v-424q0 -32 11.5 -66.5t32.5 -68.5t50.5 -64.5t66 -54t79.5 -37t90 -13.5q48 0 86.5 15t65.5 43t42 68t15 88v514h102v-526q0 -68 -23 -122t-63 -92t-96 -58t-123 -20q-38 0 -80 6t-85 25t-86.5 54t-84.5 93v-152h-103z" />
<glyph unicode="&#xe22;" horiz-adv-x="971" d="M106 240q0 32 6 60t19 52.5t34 45t54 36.5q-34 18 -56.5 40t-34.5 45t-17 46t-5 45q0 37 10 65t26.5 48.5t38 33.5t45 21t47 11t45.5 3h134v-86h-126q-13 0 -32 -3t-36.5 -14t-30 -31t-12.5 -54q0 -30 10.5 -52t28.5 -37t42 -23t52 -10h100v-89h-100q-30 -2 -54.5 -10.5 t-42 -26.5t-27 -45t-9.5 -65q0 -39 19.5 -71.5t55 -55.5t84.5 -35q50 -12 108 -12q60 0 109 16t85 46.5t56 75t20 102.5v480h102v-491q0 -76 -27 -135.5t-76 -100.5t-118 -62t-151 -21t-151 18t-119 51.5t-78 81t-28 107.5z" />
<glyph unicode="&#xe23;" horiz-adv-x="891" d="M84 219h104q4 -22 22.5 -48.5t50 -48.5t77.5 -37q44 -15 104 -15q52 0 90.5 7t66 18t45.5 25.5t28.5 30t15 30t4.5 26.5q1 26 -6.5 46.5t-26.5 37.5t-52 30t-85 23l-240 47q-37 7 -71.5 22t-61 39t-41 56t-12.5 72q3 56 30 98t71.5 71t104.5 43.5t130 14.5q86 0 149 -17 t106 -47.5t67 -72.5t30 -94h-110q-6 32 -23 58t-46 45t-72 29.5t-101 10.5q-40 0 -81 -7.5t-73 -24t-54 -41.5q-22 -26 -24 -62q-2 -27 9 -46.5t31 -33.5t48 -23.5t62 -15.5l199 -37q68 -12 116.5 -31t80 -45.5t45.5 -61t12 -79.5q-6 -112 -97.5 -170.5t-261.5 -58.5 q-40 0 -80 5.5t-78 17.5t-72 30.5t-61 45.5t-45 61t-24 77z" />
<glyph unicode="&#xe24;" horiz-adv-x="995" d="M76 559q28 62 71 109t98 78.5t119 47t134 15.5q47 0 93.5 -7.5t89 -24.5t79 -42.5t63.5 -62t42 -84.5t15 -109v-739h-104v729q0 58 -19 104.5t-55 78t-88 48.5t-116 17q-44 0 -89 -8.5t-87 -27t-78 -48t-62 -70.5q15 -9 29.5 -24t25 -36.5t17 -50t6.5 -63.5v-305h110v-84 h-212v396q0 33 -8 59t-20 46t-26 34.5t-28 23.5z" />
<glyph unicode="&#xe25;" horiz-adv-x="940" d="M84 200q0 47 20 86t59.5 68.5t98.5 48.5q60 19 138 27l172 16q32 3 59 11.5t47 21.5t31.5 31.5t11.5 42.5q0 37 -20.5 67.5t-54 52.5t-77 34t-90.5 12q-48 0 -92.5 -8.5t-79.5 -26.5t-57 -48t-27 -73h-104q6 54 33.5 99.5t74.5 78t112 50.5t147 18q38 0 77.5 -5.5 t77.5 -18.5t71.5 -34t58.5 -51t40 -70q15 -42 15 -94v-536h-103v416q-22 -17 -60.5 -33.5t-92.5 -22.5l-177 -16q-48 -4 -86 -14.5t-64.5 -27.5t-41.5 -41.5t-15 -57.5q0 -34 16.5 -59.5t45 -42.5t66.5 -25q40 -8 84 -8q29 0 53 2q25 2 49 8v-82q-30 -6 -59 -9t-58 -3 q-61 0 -107 9.5t-79 26t-55 38t-35 46t-18 49.5t-5 47z" />
<glyph unicode="&#xe26;" horiz-adv-x="1024" d="M100 0v86h111v328q0 32 -7.5 57t-19.5 44t-27 33t-30 24q27 59 69 103.5t96 74t116 44.5t130 15q47 0 93 -7.5t87.5 -23t76.5 -40.5t60 -60t40 -80.5t15 -103.5v-752h-103v746q0 56 -18.5 99t-53.5 73t-85 45.5t-112 15.5q-38 0 -80 -6.5t-82 -23.5t-76 -45t-64 -70 q16 -8 29.5 -23t24 -35.5t17.5 -47.5q7 -26 7 -60v-410h-214z" />
<glyph unicode="&#xe27;" horiz-adv-x="909" d="M84 250h110q12 -42 35 -76t56 -58t74 -36t87 -12q68 0 120.5 26t87.5 71t53 105t18 126t-16.5 124.5t-51 103t-87 70t-124.5 25.5q-48 0 -87 -11.5t-69 -32.5t-52 -51t-35 -67h-111q16 58 45.5 104.5t73.5 80t103.5 51.5t133.5 18q66 0 121 -15.5t97 -44t73 -67.5 t51 -85.5t30 -99.5t10 -108q0 -48 -8 -97t-26 -94.5t-47 -85.5t-72 -69t-101 -46t-132 -17q-84 0 -146 21t-105 57.5t-69 85t-40 104.5z" />
<glyph unicode="&#xe28;" horiz-adv-x="989" d="M114 0v494q0 56 15.5 101t42 80t63 60t79 42t88.5 24.5t92 7.5q52 0 104 -10.5t98 -32.5q18 8 31.5 21t23 28t16 31t9.5 30h115q-2 -16 -10 -36t-22.5 -40t-36.5 -40t-54 -35q24 -19 43.5 -43t33.5 -53t21.5 -63t7.5 -72v-494h-102v496q0 51 -20.5 92.5t-57 70.5 t-88.5 45q-50 17 -112 17q-60 0 -111 -16.5t-88 -45.5t-57.5 -71t-20.5 -92v-182q48 72 117 108q70 37 164 37v-84q-69 -3 -121.5 -26t-88 -61t-53.5 -90t-18 -114v-84h-103z" />
<glyph unicode="&#xe29;" horiz-adv-x="973" d="M114 303v489h103v-491q0 -47 18 -89t52.5 -74t84.5 -50t114 -18t114 19.5t84.5 52t53 74.5t18.5 85v90h-322v141h102v-59h220v319h102v-319h96v-82h-96v-88q0 -56 -15 -100.5t-42 -80.5t-63 -62t-77 -43t-86 -25t-89 -8t-89 8t-86 25t-77 43t-62.5 62t-42 81t-15.5 100z " />
<glyph unicode="&#xe2a;" horiz-adv-x="940" d="M84 200q0 47 20 86t59.5 68.5t98.5 48.5q60 19 138 27l172 16q32 3 59 11.5t47 21.5t31.5 31.5t11.5 42.5q0 37 -20.5 67.5t-54 52.5t-77 34t-90.5 12q-48 0 -92.5 -8.5t-79.5 -26.5t-57 -48t-27 -73h-104q6 54 33.5 99.5t74.5 78t112 50.5t147 18q48 0 99 -9.5t97 -31.5 q17 8 30 20.5t22.5 27.5t16 30.5t9.5 29.5h114q-2 -17 -10 -37t-23 -40.5t-38 -40.5t-55 -35q36 -31 57 -77t21 -110v-536h-103v416q-22 -17 -60.5 -33.5t-92.5 -22.5l-177 -16q-48 -4 -86 -14.5t-64.5 -27.5t-41.5 -41.5t-15 -57.5q0 -34 16.5 -59.5t45 -42.5t66.5 -25 q40 -8 84 -8q29 0 53 2q25 2 49 8v-82q-30 -6 -59 -9t-58 -3q-61 0 -107 9.5t-79 26t-55 38t-35 46t-18 49.5t-5 47z" />
<glyph unicode="&#xe2b;" horiz-adv-x="958" d="M114 0v792h103v-382l487 382h150l-236 -186q56 -14 99 -40.5t72 -63.5t44 -83.5t15 -98.5v-320h-102v318q0 42 -13 79t-39.5 67.5t-65.5 51.5q-40 20 -92 26l-319 -251v-291h-103z" />
<glyph unicode="&#xe2c;" horiz-adv-x="1224" d="M80 792h114l176 -676l166 676h152l168 -673l104 407q4 22 8.5 43t4.5 41t-4.5 39t-15 33t-28 23t-45.5 10v75q38 2 68 10t51.5 23.5t34.5 39.5q14 25 20 59h120q-7 -34 -22 -64t-36.5 -53t-48.5 -39q-27 -14 -59 -20q42 -17 60 -46.5t18 -75.5q0 -8 -1 -17t-3.5 -21.5 t-6.5 -28.5t-10 -37l-151 -520h-120l-182 717l-182 -717h-118z" />
<glyph unicode="&#xe2d;" horiz-adv-x="962" d="M80 391v39h342v-86h-230q0 -32 9 -65t26 -63.5t41 -57t56 -46.5t70 -31t83 -11q74 0 130 23.5t93 67t55.5 103.5t18.5 132t-18.5 132t-55.5 103t-92.5 66.5t-130.5 23.5q-53 0 -97 -11.5t-78 -33.5t-59 -52t-40 -67h-105q19 56 52.5 102.5t81 80.5t109 52.5t136.5 18.5 q100 0 176.5 -31.5t127.5 -87.5t76 -133t25 -168q0 -50 -9 -99.5t-29.5 -95t-52.5 -84.5t-77 -67.5t-103.5 -44.5t-133.5 -16t-133 17t-102.5 46t-75 69t-49.5 85t-28 94t-9 96z" />
<glyph unicode="&#xe2e;" horiz-adv-x="962" d="M80 391v39h342v-86h-230q0 -32 9 -65t26 -63.5t41 -57t56 -46.5t70 -31t83 -11q74 0 130 23.5t93 67t55.5 103.5t18.5 132t-18.5 132t-55.5 103t-92.5 66.5t-130.5 23.5q-53 0 -97 -11.5t-78 -33.5t-59 -52t-40 -67h-105q19 56 52.5 102.5t81 80.5t109 52.5t136.5 18.5 q62 0 113.5 -12t95.5 -35q20 6 35.5 19t26.5 29t18 33t10 31h115q-2 -18 -10.5 -39.5t-25 -43t-41.5 -41.5q-24 -20 -60 -35q64 -58 96 -141t32 -185q0 -50 -9 -99.5t-29.5 -95t-52.5 -84.5t-77 -67.5t-103.5 -44.5t-133.5 -16t-133 17t-102.5 46t-75 69t-49.5 85t-28 94 t-9 96z" />
<glyph unicode="&#xe2f;" horiz-adv-x="884" d="M80 586q0 40 10 70t28 53t41 39t50 26t55 14t56 4h100v-84h-100q-69 0 -100.5 -30t-31.5 -94q0 -29 13 -57.5t39 -51.5t67 -37t97 -14t104 13t83.5 38.5t56 63t20.5 87.5v166h102v-792h-102v438q-24 -26 -55.5 -44t-66 -30t-70.5 -17t-68 -5q-74 0 -135 17t-104 49 t-66 77t-23 101z" />
<glyph unicode="&#xe30;" horiz-adv-x="551" d="M110 146v143h111v-59h240v-84h-351zM110 536v144h111v-60h240v-84h-351z" />
<glyph unicode="&#xe31;" d="M-555 938v158h111v-72h436v-86h-547z" />
<glyph unicode="&#xe32;" horiz-adv-x="745" d="M45 582q2 37 15 68t34 56.5t49 44.5t60.5 32t67 19.5t69.5 6.5q59 0 112 -16t92.5 -48.5t63 -80.5t23.5 -111v-553h-103v540q0 50 -15 85t-41.5 56t-60.5 30.5t-71 9.5q-33 0 -64 -9.5t-55.5 -26.5t-41.5 -43t-21 -60h-113z" />
<glyph unicode="&#xe33;" horiz-adv-x="745" d="M-312 1065q0 29 11.5 55t30.5 45t44.5 30t55.5 11q29 0 55.5 -11t45.5 -30t31 -45t12 -55q0 -30 -12 -55.5t-31 -44.5t-45.5 -30t-55.5 -11q-30 0 -55.5 11t-44.5 30t-30.5 44.5t-11.5 55.5zM-236 1065q0 -13 5.5 -25t14.5 -21t21 -14t25 -5q14 0 26 5t21 14t14 21t5 25 q0 14 -5 26t-14 20.5t-21 13.5t-26 5q-13 0 -25 -5t-21 -13.5t-14.5 -20.5t-5.5 -26zM45 582q2 37 15 68t34 56.5t49 44.5t60.5 32t67 19.5t69.5 6.5q59 0 112 -16t92.5 -48.5t63 -80.5t23.5 -111v-553h-103v540q0 50 -15 85t-41.5 56t-60.5 30.5t-71 9.5q-33 0 -64 -9.5 t-55.5 -26.5t-41.5 -43t-21 -60h-113z" />
<glyph unicode="&#xe34;" d="M-866 938l49 88h703v-88h-752z" />
<glyph unicode="&#xe35;" d="M-866 938l49 88h600v121h103v-209h-752z" />
<glyph unicode="&#xe36;" d="M-866 938l49 88h483q-3 6 -5.5 15.5t-2.5 15.5q0 24 9 45.5t25.5 38t38 26t46.5 9.5q24 0 45.5 -9.5t38 -26t26 -37.5t9.5 -46t-9.5 -46.5t-26 -38t-37.5 -25.5t-46 -9h-643zM-274 1057q0 -10 4 -19t11 -15.5t16.5 -10.5t19.5 -4t19.5 4t16.5 10.5t11 15.5t4 19t-4 19.5 t-11 16.5t-16.5 11t-19.5 4t-19.5 -4t-16.5 -11t-11 -16.5t-4 -19.5z" />
<glyph unicode="&#xe37;" d="M-866 938l49 88h385v121h110v-121h94v121h114v-209h-752z" />
<glyph unicode="&#xe38;" d="M-286 -121h172v-264h-97v178h-75v86z" />
<glyph unicode="&#xe39;" d="M-592 -121h168v-92q0 -52 27 -80.5t79 -28.5q51 0 79 28t28 81v92h97v-92q0 -37 -12 -70t-36.5 -57t-63 -38.5t-92.5 -14.5q-52 0 -90 14.5t-63 40.5t-38 62t-13 80h-70v75z" />
<glyph unicode="&#xe3a;" d="M-256 -198q0 17 6 31.5t17 25.5t26 18t33 7q16 0 30.5 -7t25.5 -18t17.5 -26t6.5 -31q0 -17 -6.5 -32t-17.5 -26.5t-25.5 -17.5t-30.5 -6q-18 0 -33 6t-26 17.5t-17 26.5t-6 32z" />
<glyph unicode="&#xe3e;" />
<glyph unicode="&#xe3f;" horiz-adv-x="1018" d="M123 0v944h325v113h64v-113h110q72 0 124 -15.5t85.5 -45t49.5 -71.5t16 -97q0 -38 -7.5 -71.5t-24.5 -60.5t-45 -47.5t-66 -33.5q50 -12 85 -33t57 -51t32 -68.5t10 -85.5q0 -49 -17 -96.5t-51.5 -84.5t-88 -60t-125.5 -23h-144v-142h-64v142h-325zM230 96h218v350h-218 v-350zM230 540h218v310h-218v-310zM512 96h106q63 0 104.5 15t65.5 40t34 56t10 65q0 33 -10.5 64.5t-34.5 56t-62.5 39t-96.5 14.5h-116v-350zM512 540h106q42 0 74.5 13t54 34t32.5 49t11 58q0 38 -10 67t-31 49t-55 30t-82 10h-100v-310z" />
<glyph unicode="&#xe40;" horiz-adv-x="334" d="M114 0v792h103v-792h-103z" />
<glyph unicode="&#xe41;" horiz-adv-x="628" d="M114 0v792h103v-792h-103zM412 0v792h102v-792h-102z" />
<glyph unicode="&#xe42;" horiz-adv-x="465" d="M41 1073l21 74h394l48 -84h-295q22 -16 36.5 -33.5t23 -35.5t12 -35t3.5 -31v-842h99v-86h-203v924q0 30 -12 56t-32 45t-45 31.5t-50 16.5z" />
<glyph unicode="&#xe43;" horiz-adv-x="465" d="M-2 989q6 51 26 87t51 59t68.5 34t77.5 11q37 0 74 -9t67 -28t48.5 -48t19.5 -69q0 -28 -8.5 -50t-22.5 -40t-30.5 -33t-32.5 -31q-26 -26 -39 -56t-13 -60v-670h99v-86h-203v756q0 33 9 59t23.5 47.5t31.5 38.5q16 17 32 31q23 22 38.5 42t15.5 44q0 38 -29 59t-80 21 q-24 0 -46.5 -7t-40.5 -20t-29 -34t-13 -48h-94z" />
<glyph unicode="&#xe44;" horiz-adv-x="465" d="M-39 1063l47 84h396l20 -74q-26 -4 -50.5 -16.5t-44.5 -31.5t-32.5 -45t-12.5 -56v-838h99v-86h-203v928q0 14 4 31t13 35t23 35.5t36 33.5h-295z" />
<glyph unicode="&#xe45;" horiz-adv-x="745" d="M45 582q3 56 29 98t67 71t93 43.5t106 14.5q59 0 112 -16t92.5 -48.5t63 -80.5t23.5 -111v-811h-103v798q0 50 -15 85t-41.5 56t-60.5 30.5t-71 9.5q-33 0 -64 -9.5t-55.5 -26.5t-41.5 -43t-21 -60h-113z" />
<glyph unicode="&#xe46;" horiz-adv-x="856" d="M94 547q0 44 10 87.5t36 78.5t70 60t112 32l100 -97l94 95q49 -6 84.5 -19t61 -31.5t41 -43t24.5 -54t12 -62.5t3 -71v-782h-105v784q0 29 -3.5 60.5t-14.5 57.5t-33 44t-58 22l-98 -98q-4 -5 -8 -4q-4 0 -8 4l-107 100q-30 -6 -50.5 -19t-33.5 -34t-19 -48.5t-6 -61.5 q0 -62 27 -94.5t78 -32.5h25v-92h-25q-22 0 -45.5 4t-46.5 14t-44.5 26t-37.5 40.5t-25.5 58t-9.5 76.5z" />
<glyph unicode="&#xe47;" d="M-780 1092q0 46 17.5 78t46.5 52t65.5 30t72.5 10h422v-82h-407q-36 0 -58.5 -8.5t-35.5 -21t-18 -27.5t-5 -29q0 -12 4 -24.5t12.5 -23t22.5 -17.5t35 -7q16 0 30.5 6t25.5 16t17.5 24t8.5 30h80q0 -16 6 -30t16 -24t24 -16t30 -6q17 0 29.5 6t21 16.5t13 24t5.5 29.5 h82q0 -40 -10 -70t-28.5 -50t-44.5 -30q-24 -10 -56 -10q-24 0 -44.5 7t-36.5 18.5t-27.5 27t-19.5 33.5q-7 -18 -20 -33.5t-31 -27t-39.5 -18.5t-45.5 -7q-48 0 -79 15.5t-49 39t-25 49.5q-7 28 -7 50z" />
<glyph unicode="&#xe48;" d="M-215 1306v193h101v-193h-101z" />
<glyph unicode="&#xe49;" d="M-482 1428v78h156v-124q110 0 169 32t65 87h94q-2 -39 -22 -74t-59 -61t-99 -42t-142 -16h-94v120h-68z" />
<glyph unicode="&#xe4a;" d="M-510 1310q0 41 10 73.5t26 54.5t37.5 33.5t45.5 11.5q18 0 33.5 -5t28 -14t22 -21t16.5 -26q8 14 18.5 26t23.5 21t29 14t34 5q20 0 36.5 -7.5t29.5 -21.5t22.5 -33t13.5 -43q10 4 22.5 16t23.5 29t18.5 37.5t9.5 42.5h92q-4 -29 -18 -59t-34 -57t-46 -47t-54 -30h-86 q-1 16 -3.5 32t-8 28.5t-14.5 20.5t-23 8t-24.5 -8t-16.5 -20.5t-10 -28.5t-4 -32h-62q-2 16 -5 32t-9 28.5t-15.5 20.5t-23.5 8q-16 0 -26.5 -8t-16.5 -20.5t-9 -28.5t-5 -32h-78z" />
<glyph unicode="&#xe4b;" d="M-336 1407v69h123v101h97v-101h122v-69h-122v-101h-97v101h-123z" />
<glyph unicode="&#xe4c;" d="M-322 1194q3 42 22.5 76t53.5 58t80 38t104 16v-76q-76 -3 -115 -29t-42 -83h-103z" />
<glyph unicode="&#xe4d;" d="M-312 1065q0 29 11.5 55t30.5 45t44.5 30t55.5 11q29 0 55.5 -11t45.5 -30t31 -45t12 -55q0 -30 -12 -55.5t-31 -44.5t-45.5 -30t-55.5 -11q-30 0 -55.5 11t-44.5 30t-30.5 44.5t-11.5 55.5zM-236 1065q0 -13 5.5 -25t14.5 -21t21 -14t25 -5q14 0 26 5t21 14t14 21t5 25 q0 14 -5 26t-14 20.5t-21 13.5t-26 5q-13 0 -25 -5t-21 -13.5t-14.5 -20.5t-5.5 -26z" />
<glyph unicode="&#xe4e;" d="M-352 960q2 32 11 61.5t26.5 53t44 38.5t63.5 19q6 54 53 86q46 34 136 38v-78q-31 -2 -51.5 -8t-33 -18t-17.5 -30.5t-5 -44.5v-10h-17q-29 0 -48.5 -7.5t-32.5 -21.5t-19 -34t-8 -44h-102z" />
<glyph unicode="&#xe4f;" horiz-adv-x="983" d="M76 402q0 58 15 111t42 99.5t65 84.5t84.5 65.5t100 42t111.5 14.5t111 -14.5t99.5 -42t85 -65.5t65.5 -84.5t42 -99.5t15 -111t-15 -112t-42 -100t-65.5 -84t-85 -65t-99.5 -42t-111 -15t-111.5 15t-100 42t-84.5 65t-65 84t-42 100t-15 112zM174 402q0 -44 11.5 -85 t32 -76.5t50 -65t65 -50t76.5 -32t85 -11.5t84.5 11.5t76 32t64.5 50t50 65t32.5 76.5t11.5 85t-11.5 84.5t-32.5 76t-50 64.5t-64.5 50t-76 32.5t-84.5 11.5t-85 -11.5t-76.5 -32.5t-65 -50t-50 -64.5t-32 -76t-11.5 -84.5zM268 402q0 44 18 84t49 70.5t72 48t87 17.5 t86 -17.5t70 -48t47.5 -70.5t17.5 -84q0 -46 -17.5 -87t-47.5 -71.5t-70 -47.5q-40 -18 -86 -18t-87 17.5t-72 48t-49 71.5t-18 87zM360 402q0 -30 10 -54t28 -42t42 -28t54 -10q28 0 51 10t40.5 28t27 42t9.5 54q0 28 -9.5 51t-27 40.5t-41.5 26.5q-22 10 -50 10 q-30 0 -54 -9.5t-42 -27t-28 -40.5t-10 -51z" />
<glyph unicode="&#xe50;" horiz-adv-x="954" d="M92 350q0 45 11 89.5t32.5 84t54 73.5t75 58.5t96 38.5t116.5 14q64 0 117.5 -14t96.5 -39t75 -60t53 -75.5t32 -85t11 -90.5q0 -45 -11 -89.5t-32 -84.5t-53 -74t-75 -59t-96.5 -39t-117.5 -14t-117 14.5t-95.5 40.5t-75 61t-54 75.5t-32.5 85.5t-11 89zM194 342 q0 -36 11 -69t30 -63t45 -55t57 -43t67 -28t73 -10q56 0 107.5 19t90.5 55t62 85t23 109q0 46 -11.5 84.5t-32 69t-47.5 53.5t-58.5 38.5t-65.5 23t-68 7.5t-67.5 -7.5t-64.5 -23t-59 -38.5t-48 -53.5t-32 -69t-12 -84.5z" />
<glyph unicode="&#xe51;" horiz-adv-x="932" d="M68 86l80 70q26 -28 60 -45t72.5 -27t78.5 -13t77 -3q62 0 118.5 19t100 57t69.5 94t26 128q0 60 -22 107.5t-60 80t-90 48.5t-113 16q-57 0 -104 -10t-81.5 -31t-53.5 -51q-19 -32 -19 -72q0 -32 13.5 -58t39 -45t62 -29t84.5 -10h21.5t20.5 2v-68q-10 -4 -22 -4h-20 q-58 0 -113 11.5t-97 36t-68 63.5t-26 91q0 48 15 86t40.5 66t60.5 48.5t75.5 33t84.5 18.5t89 6q80 0 150.5 -18t123.5 -58t83 -104t30 -154q0 -85 -31 -155.5t-85.5 -120.5t-131 -78t-166.5 -28q-42 0 -89 2t-96 12t-97 30t-90 56z" />
<glyph unicode="&#xe52;" horiz-adv-x="1112" d="M64 712l14 84q32 -2 58 -14t46 -34.5t30.5 -56t10.5 -79.5v-330q0 -48 27 -86.5t74.5 -66t113.5 -42.5t142 -15q74 0 136 13t106 39t69 64q25 36 25 84v199q0 37 -13 62.5t-32 42.5t-42 26.5t-45 13.5l-114 -92l-115 86q-16 -2 -37 -11t-39.5 -25t-31.5 -41t-13 -58v-61 q0 -27 4 -51.5t14 -42.5t28 -29t46 -11h33v-88h-19q-46 0 -79 9t-56 25t-37.5 37t-22 45t-10.5 50t-3 52v63q0 49 21 88t55 67t78 46t92 24l92 -76l90 76q31 -2 62.5 -10t60.5 -22t54 -33.5t43.5 -44t29 -53.5t10.5 -62v-178q0 -57 -17.5 -102t-47 -78.5t-69.5 -57 t-84.5 -38.5t-91.5 -22q-48 -7 -92 -7h-67q-60 0 -115.5 9t-103.5 27t-87 44t-66.5 60t-42.5 75.5t-15 89.5v301q0 29 -2.5 49.5t-9.5 34.5t-18 22t-27 10z" />
<glyph unicode="&#xe53;" horiz-adv-x="973" d="M92 295v90q0 50 10.5 91.5t29 74t45 58t58 43t67.5 29t75 15.5l111 -94l118 96q62 -6 112 -27.5t86.5 -54t56 -74.5t19.5 -88v-454h-102v454q0 33 -14 60.5t-36 47.5t-50 32t-56 14l-134 -110l-130 110q-22 -4 -50 -16t-53.5 -38t-43 -67.5t-17.5 -101.5v-88 q0 -54 6.5 -95.5t23 -69.5t45.5 -42t75 -14q11 0 23 1t24 3v-80q-22 -4 -41.5 -6t-37.5 -2q-60 0 -102 23t-68 64t-38 96t-12 120z" />
<glyph unicode="&#xe54;" horiz-adv-x="971" d="M92 282v114q0 74 25 129t71.5 90.5t111 53t142.5 17.5h220q34 0 57 7t37 21t20 34q6 18 6 44h105q-1 -22 -6 -44.5t-15 -43.5t-26 -39.5t-39 -32.5t-54 -22t-71 -8h-246q-50 0 -93.5 -12t-75 -36t-49.5 -58t-18 -78v-129q0 -46 13 -83.5t40 -65.5t67 -43t94 -15h118 q-18 13 -33 29.5t-26 35t-18 39t-7 42.5q0 9 1.5 23t7 29.5t16 31.5t29.5 29t48 21q28 8 70 8v-79q-31 0 -47.5 -9t-24.5 -21.5t-10 -25.5t-2 -20q0 -18 8 -35.5t19.5 -32t26.5 -26.5t30 -20.5t28.5 -13.5t23.5 -5h214v-82h-489q-58 0 -103 12.5t-78.5 33.5t-55.5 49 t-36 59.5t-20 64.5t-6 63z" />
<glyph unicode="&#xe55;" horiz-adv-x="971" d="M92 282v114q0 60 17 108t48 82.5t76.5 57t102.5 32.5q-3 9 -3.5 18t-0.5 18q0 28 10 52.5t28 42.5t41.5 28.5t51.5 10.5t52 -10.5t42 -28.5t28.5 -42.5t10.5 -52.5v-14t-2 -12h68q34 0 57 7t37 21t20 34q6 18 6 44h105q-1 -22 -6 -44.5t-15 -43.5t-26 -39.5t-39 -32.5 t-54 -22t-71 -8h-246q-50 0 -93.5 -12t-75 -36t-49.5 -58t-18 -78v-129q0 -46 13 -83.5t40 -65.5t67 -43t94 -15h118q-18 13 -33 29.5t-26 35t-18 39t-7 42.5q0 9 1.5 23t7 29.5t16 31.5t29.5 29t48 21q28 8 70 8v-79q-31 0 -47.5 -9t-24.5 -21.5t-10 -25.5t-2 -20 q0 -18 8 -35.5t19.5 -32t26.5 -26.5t30 -20.5t28.5 -13.5t23.5 -5h214v-82h-489q-58 0 -103 12.5t-78.5 33.5t-55.5 49t-36 59.5t-20 64.5t-6 63zM398 715q0 -28 17.5 -45.5t45.5 -17.5q14 0 25.5 4.5t20.5 13t14 20t5 25.5t-5 25.5t-14 20.5t-21 14t-25 5q-14 0 -25.5 -5 t-20 -14t-13 -20.5t-4.5 -25.5z" />
<glyph unicode="&#xe56;" horiz-adv-x="999" d="M70 702l78 46l78 -130q24 12 54.5 25t68 24t82.5 18t97 7q96 0 168 -27t119 -74t71 -112t24 -141q0 -74 -29 -137.5t-82 -110t-128 -72.5t-165 -26q-68 0 -129.5 16t-108 45t-73.5 70t-27 92q0 44 16 77t44.5 54.5t68 32t86.5 10.5h43v-75h-41q-31 -1 -52.5 -7.5 t-35.5 -18.5t-20.5 -28t-6.5 -34q0 -37 19.5 -65.5t52.5 -47t77 -28t93 -9.5q31 0 65 7t66.5 21t61.5 36t51.5 50.5t35.5 65t13 80.5q0 72 -23 123t-61 83.5t-87.5 48t-101.5 15.5q-97 0 -182 -25q-86 -25 -164 -79z" />
<glyph unicode="&#xe57;" horiz-adv-x="1165" d="M92 286v97q0 69 21 123t58 93t85 63q48 22 104 32l107 -92l113 92q64 -11 111.5 -37.5t80 -66.5t48.5 -91t16 -110v-98q0 -22 -3.5 -51t-11 -59.5t-20.5 -60.5q-13 -28 -31 -50q39 10 73.5 34t60 58t40.5 74q14 40 14 80v296q0 45 10.5 79t29.5 56.5t45.5 34.5t58.5 14 q4 -20 11 -40t11 -37q-32 -6 -47.5 -37t-15.5 -94v-258q0 -72 -21.5 -130.5t-62.5 -102t-99 -71.5t-132 -38l-80 57q24 28 37 57.5t20 59t8.5 61t1.5 63.5v103q0 48 -12.5 84.5t-32.5 62.5t-44.5 43t-47.5 25l-129 -106l-127 108q-22 -7 -48 -23.5t-47.5 -43.5t-36 -65 t-14.5 -89v-94q0 -19 1.5 -42t5 -47t11.5 -47t21 -40t32 -28t47 -11h22q12 0 28 2v-78q-18 -4 -34 -6t-31 -2q-54 0 -93.5 24t-64 64t-36 94t-11.5 112z" />
<glyph unicode="&#xe58;" horiz-adv-x="971" d="M88 248v139q0 68 23.5 123t67 94.5t106.5 60.5t141 21h268q33 0 55.5 7t36.5 21t20 34q6 18 7 44h99q-2 -34 -12.5 -67.5t-34.5 -61t-64 -44.5q-41 -17 -101 -17h-288q-54 0 -95 -18.5t-69 -48t-43 -67.5t-15 -75v-145q0 -36 16.5 -65.5t42 -51t55.5 -34.5t60 -17 l124 110l132 -110q30 2 60 10t53 25.5t37 45.5q14 29 14 69q0 19 -2 37.5t-10 34t-25 25t-47 9.5h-42v78h42q39 0 67.5 -8t48.5 -22t33 -32t20 -38.5t9 -42t2 -41.5q0 -58 -20 -103t-57 -75t-90 -45t-119 -15l-106 94l-105 -94q-58 2 -111 22t-94 54.5t-65.5 80.5t-24.5 99z " />
<glyph unicode="&#xe59;" horiz-adv-x="960" d="M88 289v88q0 82 17.5 141.5t52 98t84.5 57t116 18.5h66q20 0 39 -3t36 -12t33.5 -25t32.5 -44l76 78q3 3 7 4.5t8 1.5h65q32 0 52.5 6.5t33 19t17 30.5t6.5 40h100q-2 -32 -11 -63t-30.5 -56t-59.5 -40t-98 -15h-39q-13 0 -20.5 -4t-13.5 -12l-56 -60l236 -538h-105 l-225 518q-8 18 -17 35t-21 31t-29 22t-39 8h-46q-28 0 -57.5 -10t-53.5 -36t-39.5 -71t-15.5 -116v-103q0 -32 6 -67.5t20 -66t40 -50.5t66 -20q26 0 44 3t36 7l12 -76q-29 -10 -55.5 -14t-49.5 -4q-57 0 -98.5 24t-69 64t-40.5 95t-13 116z" />
<glyph unicode="&#xe5a;" horiz-adv-x="1177" d="M80 586q0 40 10 70t28 53t41 39t50 26t55 14t56 4h100v-84h-100q-69 0 -100.5 -30t-31.5 -94q0 -29 13 -57.5t39 -51.5t67 -37t97 -14t104 13t83.5 38.5t56 63t20.5 87.5v166h102v-792h-102v438q-24 -26 -55.5 -44t-66 -30t-70.5 -17t-68 -5q-74 0 -135 17t-104 49 t-66 77t-23 101zM958 0v792h103v-792h-103z" />
<glyph unicode="&#xe5b;" horiz-adv-x="1796" d="M88 410q0 73 25 139.5t71.5 118.5t114 82t153.5 30q69 0 121 -22t87 -61t53.5 -91t21.5 -110h-104q-2 40 -17 73t-39.5 57t-56.5 37t-66 13q-52 0 -97.5 -19t-80 -54.5t-55.5 -86.5q-21 -50 -21 -114q0 -67 23.5 -120.5t63.5 -91.5t93.5 -58t113.5 -20t110 19t91 51 t71 77t51 97t31.5 109t11.5 115q18 14 35.5 25t36.5 23q23 -30 57.5 -86t85.5 -144q18 30 37.5 59t38 55t36 49t29.5 41q13 -16 30.5 -40t35 -50t34 -52t28.5 -46q10 14 22 30t24 31t24 29t22 24h231l67 -98h-268q-10 -12 -24 -30t-31.5 -42t-36 -51t-34.5 -55 q-14 29 -31 59t-33 57.5t-31 51.5t-27 41q-14 -16 -32 -41.5t-37 -58t-38 -70t-34 -74.5q-14 36 -32.5 71.5t-37.5 69t-37 62t-34 49.5q-8 -62 -27 -119.5t-48 -108.5t-67 -92.5t-85 -71t-101 -46.5t-116 -17q-64 0 -118.5 14.5t-99 40.5t-79 62.5t-58 80.5t-35.5 94 t-12 104z" />
<glyph unicode="&#x2000;" horiz-adv-x="788" />
<glyph unicode="&#x2001;" horiz-adv-x="1577" />
<glyph unicode="&#x2002;" horiz-adv-x="788" />
<glyph unicode="&#x2003;" horiz-adv-x="1577" />
<glyph unicode="&#x2004;" horiz-adv-x="525" />
<glyph unicode="&#x2005;" horiz-adv-x="394" />
<glyph unicode="&#x2006;" horiz-adv-x="262" />
<glyph unicode="&#x2007;" horiz-adv-x="262" />
<glyph unicode="&#x2008;" horiz-adv-x="197" />
<glyph unicode="&#x2009;" horiz-adv-x="315" />
<glyph unicode="&#x200a;" horiz-adv-x="87" />
<glyph unicode="&#x200b;" />
<glyph unicode="&#x2010;" horiz-adv-x="715" d="M74 324v90h567v-90h-567z" />
<glyph unicode="&#x2011;" horiz-adv-x="715" d="M74 324v90h567v-90h-567z" />
<glyph unicode="&#x2012;" horiz-adv-x="715" d="M74 324v90h567v-90h-567z" />
<glyph unicode="&#x2013;" horiz-adv-x="794" d="M68 322v92h659v-92h-659z" />
<glyph unicode="&#x2014;" horiz-adv-x="1456" d="M68 322v92h1320v-92h-1320z" />
<glyph unicode="&#x2018;" horiz-adv-x="444" d="M152 598v125q0 36 8 69.5t25 60.5t44 47t64 30v-62q-20 -7 -34.5 -17t-24.5 -26t-14.5 -39t-4.5 -55h78v-133h-141z" />
<glyph unicode="&#x2019;" horiz-adv-x="444" d="M152 602v62q20 7 34.5 17.5t24 26.5t14.5 39t5 54h-78v133h141v-125q0 -36 -8.5 -69.5t-25.5 -61t-44 -47.5t-63 -29z" />
<glyph unicode="&#x201c;" horiz-adv-x="641" d="M131 598v125q0 36 8.5 69.5t25.5 60.5t44 47t63 30v-62q-20 -7 -34.5 -17.5t-24 -26.5t-14.5 -39t-5 -54h78v-133h-141zM368 598v125q0 36 8.5 69.5t26 60.5t44 47t63.5 30v-62q-20 -7 -35 -17.5t-24 -26.5t-14 -39t-5 -54h78v-133h-142z" />
<glyph unicode="&#x201d;" horiz-adv-x="641" d="M131 602v62q20 7 34.5 17.5t24.5 26.5t14.5 39t4.5 54h-78v133h141v-125q0 -36 -8 -69.5t-25 -61t-44 -47.5t-64 -29zM368 602v62q20 7 35 17.5t24.5 26.5t14 39t4.5 54h-78v133h142v-125q0 -36 -8 -69.5t-25.5 -61t-44 -47.5t-64.5 -29z" />
<glyph unicode="&#x2022;" horiz-adv-x="663" d="M106 473q0 46 18 86.5t49 71t72.5 48t88.5 17.5q46 0 86.5 -17.5t71 -48t48 -71t17.5 -86.5q0 -47 -17.5 -88t-48 -72t-71 -49t-86.5 -18q-47 0 -88.5 18t-72.5 49t-49 72t-18 88z" />
<glyph unicode="&#x202f;" horiz-adv-x="315" />
<glyph unicode="&#x205f;" horiz-adv-x="394" />
<glyph unicode="&#x20ac;" horiz-adv-x="1151" d="M43 504v80h113q14 83 51.5 153.5t96.5 121.5t138.5 80t179.5 29q44 0 93 -6t96.5 -21t92 -40.5t79.5 -63.5t59 -90q24 -53 31 -121h-107q-7 54 -31.5 100t-66 79t-100.5 52t-135 19q-73 0 -134 -18t-108.5 -55t-80 -92t-46.5 -127h371v-80h-381v-36v-23t0.5 -15.5 t1.5 -11.5h379v-80h-367q14 -56 41.5 -105t71 -86t103.5 -58t140 -21q63 0 118.5 15t99.5 48t76 84.5t48 124.5h107q-12 -74 -48.5 -140.5t-95 -116t-136 -78.5t-171.5 -29q-48 0 -97.5 8t-96 26t-89.5 47t-78 69t-61 93t-40 119h-115v80h105l-2 86h-105z" />
<glyph unicode="&#x2122;" horiz-adv-x="1304" d="M41 882v62h413v-62h-163v-458h-86v458h-164zM592 424v520h125l163 -412l168 412h124v-520h-80v465l-15 -37l-169 -428h-56l-166 428l-14 37v-465h-80z" />
<glyph unicode="&#x25cc;" horiz-adv-x="887" d="M207 381l75 37q-3 -17 -3.5 -36.5t3.5 -37.5zM270 215l31 76q11 -17 23 -30t28 -23zM284 547l78 -27q-20 -9 -35 -21t-24 -26zM406 540l36 76l35 -74q-18 4 -37.5 3t-33.5 -5zM408 215q18 -4 33 -4t36 6l-35 -73zM530 522l86 25l-34 -76q-9 16 -23.5 29t-28.5 22z M532 236q16 11 28 22q12 10 22 26l22 -71zM606 346q6 17 6 34q0 18 -4 36l72 -37z" />
<glyph unicode="&#x25fc;" horiz-adv-x="692" d="M0 0v692h692v-692h-692z" />
<glyph unicode="&#xf700;" horiz-adv-x="876" d="M64 586q18 56 54 97t85.5 69t111 42.5t129.5 14.5q36 0 80 -7q42 -6 86 -20h4q20 2 36 10t26 19t17 25t9 28h119q-2 -18 -8.5 -37t-20.5 -36t-36 -32.5t-54 -25.5q44 -28 71.5 -75.5t27.5 -117.5q0 -40 -10.5 -84t-29.5 -91t-43 -95t-51 -94.5t-55.5 -91t-54.5 -84.5 h-157l-185 362h-115v88h186l196 -386q20 32 42.5 70t45 78t43.5 82t37 83t26 80t10 73q0 50 -22 86.5t-58 60t-81 35t-91 11.5q-40 0 -78.5 -7.5t-71.5 -24.5t-59.5 -43t-44.5 -62h-116z" />
<glyph unicode="&#xf701;" d="M-973 938q7 12 13 23t11 22t11 21t12 22h584v-88h-631z" />
<glyph unicode="&#xf702;" d="M-973 938l47 88h482v121h102v-209h-631z" />
<glyph unicode="&#xf703;" d="M-975 938l49 88h377q-3 6 -5.5 15.5t-2.5 15.5q0 27 9.5 49t25.5 37t38 24t46 9t46 -9.5t38 -26t25 -37.5t9 -46t-9 -46.5t-25 -38t-38 -25.5t-46 -9h-537zM-490 1057q0 -10 4.5 -19t11.5 -15.5t16.5 -10.5t19.5 -4t19 4t16 10.5t11.5 15.5t4.5 19t-4.5 19.5t-11.5 16.5 t-16 11t-19 4t-19.5 -4t-16.5 -11t-11.5 -16.5t-4.5 -19.5z" />
<glyph unicode="&#xf704;" d="M-973 938l47 88h268v121h109v-121h97v121h110v-209h-631z" />
<glyph unicode="&#xf705;" d="M-528 940v194h102v-194h-102z" />
<glyph unicode="&#xf706;" d="M-824 1059v77h156v-118q53 0 94.5 9.5t70 26t45 37.5t20.5 45h96q-3 -38 -22.5 -72.5t-58.5 -62t-97 -43.5q-60 -16 -140 -16h-96v117h-68z" />
<glyph unicode="&#xf707;" d="M-856 940q0 42 9 74t25 54t36 33t42 11q28 0 53 -15t44 -45q18 31 42 45.5t52 14.5q17 0 33 -7t30 -21t25 -35t17 -47q25 30 36.5 65t11.5 67h91q-2 -32 -11.5 -62t-24.5 -56t-37 -46t-50 -30h-90q-1 12 -3.5 27t-8.5 28t-14 22t-20 9t-20.5 -8.5t-14 -21t-8.5 -28 t-3 -28.5h-66q-2 13 -5 28.5t-8 28t-13 21t-19 8.5q-12 0 -20.5 -9t-13.5 -22t-8 -28t-3 -27h-86z" />
<glyph unicode="&#xf708;" d="M-690 1042v70h120v98h101v-98h121v-70h-121v-100h-101v100h-120z" />
<glyph unicode="&#xf709;" d="M-606 944q3 42 22.5 77t54 60t82 39t105.5 16v-79q-76 -4 -115 -30t-43 -83h-106z" />
<glyph unicode="&#xf70a;" d="M-217 940v194h103v-194h-103z" />
<glyph unicode="&#xf70b;" d="M-498 1059v77h156v-118q53 0 94 9.5t69.5 26t45.5 37.5t21 45h96q-3 -38 -23 -72.5t-58.5 -62t-97.5 -43.5t-139 -16h-96v117h-68z" />
<glyph unicode="&#xf70c;" d="M-633 940q0 42 10.5 75t27.5 55t39 34t46 12q18 0 33 -5t27 -13t22 -20t18 -26q16 28 42 46t63 18q20 0 36.5 -8t30 -21t23 -31t15.5 -38q10 4 22 14t22 24.5t16.5 34t6.5 43.5h94q-2 -31 -14.5 -60.5t-33.5 -56t-48 -47t-55 -30.5h-88q-1 14 -3.5 29.5t-8 28t-14 20.5 t-22.5 8t-23 -8t-15 -20.5t-9 -28t-4 -29.5h-65q-1 16 -4.5 31t-10.5 27t-16 20t-23 8t-24 -8t-17 -20t-10 -27t-4 -31h-82z" />
<glyph unicode="&#xf70d;" d="M-336 1042v70h121v98h101v-98h120v-70h-120v-100h-101v100h-121z" />
<glyph unicode="&#xf70e;" d="M-316 944q3 42 23.5 77t54.5 60t81 39t106 16v-79q-76 -4 -115.5 -30t-42.5 -83h-107z" />
<glyph unicode="&#xf70f;" horiz-adv-x="1399" d="M76 570q20 49 54 92.5t82.5 76t110 51.5t136.5 19q70 0 132 -16.5t108.5 -54.5t72.5 -98t26 -146v-254q0 -48 15 -81t41 -54t62 -30t78 -9t76 9t59 30t39 55t14 82v550h102v-550q0 -50 -12 -89t-33 -67t-50 -47.5t-61 -31t-67 -16.5t-70 -5q-37 0 -73 5t-69 17t-61 31 t-49 47t-33 66t-12 88v244q0 56 -14 100t-43 75t-73.5 47.5t-104.5 16.5q-36 0 -74.5 -7.5t-75.5 -25t-69 -46t-56 -70.5q16 -8 30 -23t25 -35.5t17 -47.5q6 -26 6 -60v-322h110v-86h-212v412q0 32 -8 57t-20 44t-27 33t-29 24z" />
<glyph unicode="&#xf710;" d="M-555 938v158h111v-72h512v-86h-623z" />
<glyph unicode="&#xf711;" d="M-618 1065q0 29 11 55t30 45t45 30t55 11t55 -11t45.5 -30t31 -45t11.5 -55q0 -30 -11.5 -55.5t-31 -44.5t-45.5 -30t-55 -11q-30 0 -55.5 11t-44.5 30t-30 44.5t-11 55.5zM-542 1065q0 -13 5 -25t14 -21t21 -14t25 -5q14 0 25.5 5t20.5 14t14 21t5 25q0 14 -5 26 t-14 20.5t-21 13.5t-25 5t-25 -5t-21 -13.5t-14 -20.5t-5 -26z" />
<glyph unicode="&#xf712;" d="M-880 1092q0 46 17 78t45.5 52t64 30t71.5 10h412v-82h-398q-34 0 -56.5 -8.5t-35 -21t-17.5 -27.5t-5 -29q0 -12 3.5 -24.5t12 -23t22.5 -17.5t34 -7q16 0 30 6t25 16t17 24t7 30h78q0 -16 6.5 -30t16 -24t23 -16t28.5 -6q17 0 29.5 6t21 16.5t13.5 24t5 29.5h86 q0 -40 -11 -70t-30 -50t-45 -30t-57 -10q-23 0 -43 7t-35.5 18.5t-27 27t-17.5 33.5q-7 -18 -20.5 -33.5t-31 -27t-39 -18.5t-44.5 -7q-46 0 -76.5 15.5t-47.5 39t-24 49.5q-7 28 -7 50z" />
<glyph unicode="&#xf713;" d="M-442 1306v193h100v-193h-100z" />
<glyph unicode="&#xf714;" d="M-719 1428v78h156v-124q110 0 168.5 32t64.5 87h94q-2 -39 -21.5 -74t-59 -61t-99.5 -42t-141 -16h-95v120h-67z" />
<glyph unicode="&#xf715;" d="M-717 1310q0 41 9.5 73.5t26 54.5t38 33.5t45.5 11.5q18 0 33.5 -5t28 -14t22.5 -21t16 -26q8 14 19 26t24 21t28.5 14t33.5 5q20 0 36.5 -7.5t29.5 -20.5t22 -32t14 -43q14 5 27.5 16.5t23.5 28t16 36.5t7 42h92q-4 -29 -17.5 -59t-34.5 -57t-47 -47q-24 -20 -52 -30 h-86q-1 16 -3.5 32t-8.5 28.5t-15 20.5t-23 8t-24 -8t-17 -20.5t-10 -28.5t-4 -32h-61q-2 16 -5 32t-9.5 28.5t-16 20.5t-23.5 8q-16 0 -26 -8t-17 -20.5t-10 -28.5t-4 -32h-78z" />
<glyph unicode="&#xf716;" d="M-565 1407v69h123v101h96v-101h123v-69h-123v-101h-96v101h-123z" />
<glyph unicode="&#xf717;" d="M-444 1182q3 42 22.5 76t52.5 58t80 38t105 16v-76q-75 -4 -115 -30t-43 -82h-102z" />
<glyph unicode="&#xf718;" d="M-286 -340h172v-264h-97v178h-75v86z" />
<glyph unicode="&#xf719;" d="M-592 -338h168v-92q0 -52 27 -80t79 -28q51 0 79 28t28 80v92h97v-92q0 -37 -12 -69.5t-36.5 -57.5t-63 -39t-92.5 -14q-52 0 -90 14t-63 40.5t-38 63t-13 78.5h-70v76z" />
<glyph unicode="&#xf71a;" d="M-256 -402q0 17 6 32t17 26.5t26 17.5t33 6q16 0 30.5 -6t25.5 -17.5t17.5 -26t6.5 -32.5q0 -17 -6.5 -31.5t-17.5 -25.5t-25.5 -18t-30.5 -7q-18 0 -33 7t-26 18t-17 25.5t-6 31.5z" />
<glyph unicode="&#xf71d;" horiz-adv-x="1208" d="M82 792h114l176 -676l166 676h152l168 -673l104 407q4 22 8.5 43t4.5 41t-4.5 39t-15 33t-28 23t-45.5 10v75q38 2 68 10t51.5 23.5t35.5 39.5q14 25 20 59h119q-7 -34 -22 -64t-36.5 -53t-48.5 -39q-27 -14 -59 -20q42 -17 60 -46.5t18 -75.5q0 -8 -1 -17t-3.5 -21.5 t-6.5 -28.5t-10 -37l-151 -520h-120l-182 717l-182 -717h-118z" />
<glyph unicode="&#xf881;" horiz-adv-x="1462" d="M76 570q28 60 71 104.5t98 74.5t119 45t134 15q42 0 83 -6.5t81 -19.5t77 -33q37 -22 68 -50q24 26 50.5 46.5t57.5 34t66 21t76 7.5q58 0 110.5 -16t92 -48.5t63 -80.5t23.5 -111v-813h-103v794q0 48 -13.5 83t-38.5 58t-59 34.5t-75 11.5q-34 0 -66.5 -9.5t-57.5 -29 t-42 -47t-19 -63.5q3 -17 6 -37q2 -19 2 -41v-754h-104v744q0 54 -20.5 97t-57 74.5t-88.5 48.5q-50 17 -112 17q-40 0 -85 -8t-87.5 -25.5t-80 -45.5t-63.5 -68q15 -8 29.5 -23t25 -35.5t17.5 -47.5q6 -26 6 -60v-322h110v-86h-212v412q0 32 -8 57.5t-20 45t-26 33.5 t-28 22z" />
<glyph unicode="&#xf882;" horiz-adv-x="1491" d="M100 0v86h111v326q0 32 -7.5 57t-19.5 44t-27 33t-30 24q27 59 69 103.5t96 74.5t116 46q62 15 130 15q42 0 83 -6.5t79.5 -19.5t73 -33t64.5 -48q24 26 53 46t61 33t66 20.5t68 7.5q59 0 111.5 -16t92.5 -48.5t63 -80.5t23 -111v-809h-104v782q0 50 -14 87t-39 61 t-59 35.5t-74 11.5q-34 0 -66 -9.5t-58 -29t-42 -47t-19 -63.5q3 -17 6 -37q3 -19 3 -41v-752h-103v742q0 56 -19.5 100t-54.5 74.5t-85 46.5t-110 16q-38 0 -81 -8.5t-84 -26.5t-77 -46t-60 -66q16 -8 29.5 -23t24 -35.5t17.5 -47.5q7 -26 7 -60v-408h-214z" />
<glyph d="M-631 977q2 32 11 61t26.5 52.5t44.5 39t63 19.5q6 54 53 86t136 37v-78q-31 -2 -51 -8t-33 -18t-18 -30t-5 -44v-10h-16q-29 0 -49 -8t-32.5 -21.5t-18.5 -32.5q-6 -20 -8 -45h-103z" />
<glyph horiz-adv-x="745" d="M-616 1065q0 29 11 55t30 45t45 30t55 11t55 -11t45.5 -30t31 -45t11.5 -55q0 -30 -11.5 -55.5t-31 -44.5t-45.5 -30t-55 -11q-30 0 -55.5 11t-44.5 30t-30 44.5t-11 55.5zM-540 1065q0 -13 5 -25t14 -21t21 -14t25 -5q14 0 25.5 5t20.5 14t14 21t5 25q0 14 -5 26 t-14 20.5t-21 13.5t-25 5t-25 -5t-21 -13.5t-14 -20.5t-5 -26zM45 582q2 37 15 68t34 56.5t49 44.5t60.5 32t67 19.5t69.5 6.5q59 0 112 -16t92.5 -48.5t63 -80.5t23.5 -111v-553h-103v540q0 50 -15 85t-41.5 56t-60.5 30.5t-71 9.5q-33 0 -64 -9.5t-55.5 -26.5t-41.5 -43 t-21 -60h-113z" />
<glyph horiz-adv-x="745" d="M-616 1065q0 29 11 55t30 45t45 30t55 11t55 -11t45.5 -30t31 -45t11.5 -55q0 -30 -11.5 -55.5t-31 -44.5t-45.5 -30t-55 -11q-30 0 -55.5 11t-44.5 30t-30 44.5t-11 55.5zM-540 1065q0 -13 5 -25t14 -21t21 -14t25 -5q14 0 25.5 5t20.5 14t14 21t5 25q0 14 -5 26 t-14 20.5t-21 13.5t-25 5t-25 -5t-21 -13.5t-14 -20.5t-5 -26zM45 582q2 37 15 68t34 56.5t49 44.5t60.5 32t67 19.5t69.5 6.5q59 0 112 -16t92.5 -48.5t63 -80.5t23.5 -111v-553h-103v540q0 50 -15 85t-41.5 56t-60.5 30.5t-71 9.5q-33 0 -64 -9.5t-55.5 -26.5t-41.5 -43 t-21 -60h-113z" />
<glyph d="M-764 938l49 88h601v-88h-650z" />
<glyph d="M-764 938l49 88h498v121h103v-209h-650z" />
<glyph d="M-764 938l49 88h381q-3 6 -5.5 15.5t-2.5 15.5q0 24 9 45.5t25.5 38t38 26t46.5 9.5q24 0 45.5 -9.5t38 -26t26 -37.5t9.5 -46t-9.5 -46.5t-26 -38t-37.5 -25.5t-46 -9h-541zM-274 1057q0 -10 4 -19t11 -15.5t16.5 -10.5t19.5 -4t19.5 4t16.5 10.5t11 15.5t4 19t-4 19.5 t-11 16.5t-16.5 11t-19.5 4t-19.5 -4t-16.5 -11t-11 -16.5t-4 -19.5z" />
<glyph d="M-764 938l49 88h283v121h110v-121h94v121h114v-209h-650z" />
<glyph d="M-1096 938l48 88h747v-88h-795z" />
<glyph d="M-1096 938l48 88h644v121h103v-209h-795z" />
<glyph d="M-1098 938l50 88h560q-3 6 -5.5 15.5t-2.5 15.5q0 27 9.5 49t26 37t37.5 24t46 9q24 0 46 -9.5t38 -26t25.5 -37.5t9.5 -46t-9.5 -46.5t-25.5 -38t-37.5 -25.5t-46.5 -9h-721zM-428 1057q0 -10 4 -19t11 -15.5t16.5 -10.5t19.5 -4t19.5 4t16.5 10.5t11 15.5t4 19t-4 19.5 t-11 16.5t-16.5 11t-19.5 4t-19.5 -4t-16.5 -11t-11 -16.5t-4 -19.5z" />
<glyph d="M-1096 938l48 88h432v121h108v-121h96v121h111v-209h-795z" />
<glyph d="M-402 1306v193h101v-193h-101z" />
<glyph d="M-674 1428v78h156v-124q110 0 168 32q60 32 66 87h94q-2 -39 -22 -74t-59.5 -61t-99 -42t-141.5 -16h-94v120h-68z" />
<glyph d="M-676 1310q0 41 10 73.5t26 54.5t37.5 33.5t45.5 11.5q18 0 33.5 -5t28 -14t22 -21t17.5 -26q8 14 18 26t23 21t29 14t34 5q20 0 36.5 -7.5t30 -20.5t22.5 -32t13 -43q14 5 27.5 16.5t23.5 28t16 36.5t7 42h92q-4 -29 -18 -59t-34 -57t-46 -47t-54 -30h-86q-1 16 -3.5 32 t-7.5 28.5t-15 20.5q-8 8 -22 8t-25 -8t-17 -20.5t-10 -28.5t-4 -32h-62q-2 16 -5 32t-9 28.5t-16 20.5q-8 8 -22 8q-16 0 -27 -8t-17 -20.5t-9 -28.5t-5 -32h-78z" />
<glyph d="M-524 1407v69h122v101h97v-101h123v-69h-123v-101h-97v101h-122z" />
<glyph d="M-1092 938l50 88h928v-88h-978z" />
<glyph d="M-1092 938l50 88h825v121h103v-209h-978z" />
<glyph d="M-1092 938l50 88h708q-3 6 -5.5 15.5t-2.5 15.5q0 24 9 45.5t25.5 38t38 26t46.5 9.5q24 0 45.5 -9.5t38 -26t26 -37.5t9.5 -46t-9.5 -46.5t-26 -38t-37.5 -25.5t-46 -9h-869zM-274 1057q0 -10 4 -19t11 -15.5t16.5 -10.5t19.5 -4t19.5 4t16.5 10.5t11 15.5t4 19t-4 19.5 t-11 16.5t-16.5 11t-19.5 4t-19.5 -4t-16.5 -11t-11 -16.5t-4 -19.5z" />
<glyph d="M-1092 938l50 88h610v121h110v-121h94v121h114v-209h-978z" />
<glyph d="M-215 1204v192h101v-192h-101z" />
<glyph d="M-482 1325v78h156v-123q110 0 169 32t65 87h94q-2 -39 -22 -74t-59 -61t-99 -42t-142 -16h-94v119h-68z" />
<glyph d="M-510 1208q0 40 10 72.5t26 55t37.5 33.5t45.5 11q18 0 33.5 -5t28 -14t22 -21t16.5 -25q16 28 42.5 46.5t62.5 18.5q20 0 36.5 -7.5t29.5 -21t22.5 -33t13.5 -42.5q10 4 22.5 16t23.5 29t18.5 37t9.5 43h92q-4 -30 -18 -60t-34 -56.5t-46 -46.5t-54 -30h-86 q-1 16 -3.5 31.5t-8 28t-14.5 20.5t-23 8t-24.5 -8t-16.5 -20.5t-10 -28t-4 -31.5h-62q-2 16 -5 31.5t-9 28t-15.5 20.5t-23.5 8q-16 0 -26.5 -8t-16.5 -20.5t-9 -28t-5 -31.5h-78z" />
<glyph d="M-336 1304v70h123v100h97v-100h122v-70h-122v-100h-97v100h-123z" />
<glyph d="M-442 1204v192h100v-192h-100z" />
<glyph d="M-666 1325v78h156v-123q110 0 169 32t65 87h94q-2 -39 -22 -74t-59 -61t-99 -42t-142 -16h-94v119h-68z" />
<glyph d="M-717 1208q0 40 9.5 72.5t26 55t38 33.5t45.5 11q18 0 33.5 -5t28 -14t22.5 -21t16 -25q8 14 19 25.5t24 20.5t28.5 14t33.5 5q20 0 36.5 -7t29.5 -20.5t22 -32.5t14 -42q14 6 27.5 17t23.5 27t16 36t7 43h92q-4 -30 -17.5 -60t-34.5 -56.5t-47 -46.5q-24 -20 -52 -30 h-86q-1 16 -3.5 31.5t-8.5 28t-15 20.5t-23 8t-24 -8t-17 -20.5t-10 -28t-4 -31.5h-61q-2 16 -5 31.5t-9.5 28t-16 20.5t-23.5 8q-16 0 -26 -8t-17 -20.5t-10 -28t-4 -31.5h-78z" />
<glyph d="M-565 1304v70h123v100h96v-100h123v-70h-123v-100h-96v100h-123z" />
<glyph d="M-477 -121h172v-264h-97v178h-75v86z" />
<glyph d="M-654 -121h168v-92q0 -52 27 -80.5t80 -28.5q51 0 79 28t28 81v92h96v-92q0 -37 -11.5 -70t-36 -57t-63 -38.5t-92.5 -14.5q-56 0 -94.5 14.5t-62.5 40.5t-36 62t-12 80h-70v75z" />
<glyph d="M-471 -198q0 17 6.5 31.5t17.5 25.5t26 18t32 7q16 0 30.5 -7t25.5 -18t17.5 -26t6.5 -31q0 -17 -6.5 -32t-17.5 -26.5t-25.5 -17.5t-30.5 -6q-18 0 -32.5 6t-25.5 17.5t-17.5 26.5t-6.5 32z" />
<glyph d="M-471 -121h172v-264h-97v178h-75v86z" />
<glyph d="M-796 -121h168v-92q0 -52 26.5 -80.5t79.5 -28.5q51 0 78.5 28t27.5 81v92h96v-92q0 -37 -11 -70t-36 -57t-63 -38.5t-92 -14.5q-57 0 -96 14.5t-63 40.5t-34.5 62t-11.5 80h-69v75z" />
<glyph d="M-450 -198q0 17 6 31.5t17 25.5t26 18t33 7q16 0 30 -7t25 -18t17.5 -26t6.5 -31q0 -17 -6.5 -32t-17.5 -26.5t-25 -17.5t-30 -6q-18 0 -33 6t-26 17.5t-17 26.5t-6 32z" />
<glyph d="M-578 938v158h111v-72h575v-86h-686z" />
<glyph d="M-381 1306v193h101v-193h-101z" />
<glyph d="M-584 1428v78h156v-124q110 0 168 32q60 32 66 87h94q-2 -39 -22 -74t-59.5 -61t-99 -42t-141.5 -16h-94v120h-68z" />
<glyph d="M-614 1310q0 41 9.5 73.5t26 54.5t37.5 33.5t45 11.5q18 0 34 -5t28 -14t22 -21t16 -26q8 14 19 26t24 21t29 14t33 5q20 0 36.5 -7.5t30 -20.5t22.5 -32q10 -19 14 -43q14 5 27 16.5t23 28t16 36.5t8 42h92q-4 -29 -18 -59t-34.5 -57t-46 -47t-53.5 -30h-86 q-1 16 -3.5 32t-8 28.5t-15 20.5t-22.5 8q-14 0 -24.5 -8t-17 -20.5t-10 -28.5t-3.5 -32h-62q-2 16 -5 32t-9 28.5t-16 20.5t-23 8q-16 0 -26.5 -8t-17 -20.5t-9.5 -28.5l-4 -32h-78z" />
<glyph d="M-504 1407v69h123v101h97v-101h122v-69h-122v-101h-97v101h-123z" />
<glyph d="M-508 1306v193h101v-193h-101z" />
<glyph d="M-630 1407v69h122v101h97v-101h123v-69h-123v-101h-97v101h-122z" />
</font>
</defs>
</svg>
